<?xml version="1.0" encoding="utf-8" ?>
<svg baseProfile="full" height="200mm" version="1.1" viewBox="0,0,200,200" width="200mm" xmlns="http://www.w3.org/2000/svg" xmlns:ev="http://www.w3.org/2001/xml-events" xmlns:xlink="http://www.w3.org/1999/xlink"><defs /><rect fill="#1a1a1a" height="200" width="200" x="0" y="0" /><text alignment-baseline="middle" fill="#e1ed5e" style="dominant-baseline: central; font-size:9.0px; font-family:Arial;" text-anchor="middle" x="100.0" y="100.0">2022</text><line stroke="#e1ed5e" stroke-width="0.3" x1="100.0" x2="100.0" y1="15.0" y2="10.0" /><path d="M 100.0 14.0 a86.0,86.0 0 0,1 42.46469731375804,11.215312516191453" fill="none" id="id61" stroke="none" /><text fill="#e1ed5e" style="font-size:6.75px; font-family:Arial;" text-anchor="middle"><textPath startOffset="22.20632615414155" xlink:href="#id61">January</textPath></text><path d="M 105.36241919743992 79.69619591428918 l 16.08725759231978 -60.91141225713248 a84.0,84.0 0 0,0 1.3948084431051566,0.3812538366948255 l -17.13336392464865 60.62547187961136" fill="#4dd2ff" stroke="none" /><path d="M 110.05341064243156 81.56283822128135 l 6.315975305968067 -11.583000301911527 a34.19308303845924,34.19308303845924 0 0,0 0.5143224405813742,0.2862198813384435 l -6.5144218356214765 11.472565023012905" fill="#ff770b" stroke="none" /><line stroke="#e1ed5e" stroke-width="0.3" x1="143.23703022742887" x2="145.7803849466894" y1="26.81831364943548" y2="22.513508569990506" /><path d="M 143.74570117128098 25.957352633546492 a86.0,86.0 0 0,1 28.547481713284135,27.462654790039103" fill="none" id="id62" stroke="none" /><text fill="#e1ed5e" style="font-size:6.75px; font-family:Arial;" text-anchor="middle"><textPath startOffset="19.985693538727396" xlink:href="#id62">February</textPath></text><line stroke="#e1ed5e" stroke-width="0.3" x1="172.23445277983987" x2="176.4835382374775" y1="55.19839476539836" y2="52.563006222186495" /><path d="M 173.08426987136738 54.67131705675599 a86.0,86.0 0 0,1 12.851231095245387,41.99856678651699" fill="none" id="id63" stroke="none" /><text fill="#e1ed5e" style="font-size:6.75px; font-family:Arial;" text-anchor="middle"><textPath startOffset="22.20632615414155" xlink:href="#id63">March</textPath></text><line stroke="#e1ed5e" stroke-width="0.3" x1="184.98032266829074" x2="189.97916517819016" y1="98.17113171792111" y2="98.06355123074" /><path d="M 185.9800911702706 98.14961562048488 a86.0,86.0 0 0,1 -9.607161424134198,41.387399972396054" fill="none" id="id64" stroke="none" /><text fill="#e1ed5e" style="font-size:6.75px; font-family:Arial;" text-anchor="middle"><textPath startOffset="21.466115282336823" xlink:href="#id64">April</textPath></text><path d="M 120.81339534386255 102.79330883721812 l 25.985267836950506 3.48741169267403 a47.21824145270338,47.21824145270338 0 0,0 -0.11504600634546766,0.8046315004272495 l -25.921387779588436 -3.934188665081689" fill="#d6ff1c" stroke="none" /><path d="M 120.32669344350535 105.2749913415812 l 50.077865784439915 12.995734360434756 a72.73665773019516,72.73665773019516 0 0,0 -0.32493170391139753,1.2091917478151417 l -49.84674600418674 -13.855817041425446" fill="#3effb5" stroke="none" /><line stroke="#e1ed5e" stroke-width="0.3" x1="174.80103733775053" x2="179.2010983576182" y1="140.37084112569926" y2="142.7455964860345" /><path d="M 175.68104954172406 140.8457921977663 a86.0,86.0 0 0,1 -30.038265399797805,32.042727171017184" fill="none" id="id65" stroke="none" /><text fill="#e1ed5e" style="font-size:6.75px; font-family:Arial;" text-anchor="middle"><textPath startOffset="22.206326154141568" xlink:href="#id65">May</textPath></text><path d="M 111.7513745106137 117.40417183066458 l 29.163759865907135 43.192486757702675 a73.11636788793533,73.11636788793533 0 0,0 -1.0491338848034155,0.6953087313255173 l -28.415951282363757 -43.68809351011951" fill="#3effba" stroke="none" /><line stroke="#e1ed5e" stroke-width="0.3" x1="143.8653032363475" x2="146.44561519142675" y1="172.8068346515853" y2="177.08958963109032" /><path d="M 144.38136562736335 173.6633856474863 a86.0,86.0 0 0,1 -40.68145358897372,12.25698825130547" fill="none" id="id66" stroke="none" /><text fill="#e1ed5e" style="font-size:6.75px; font-family:Arial;" text-anchor="middle"><textPath startOffset="21.466115282336833" xlink:href="#id66">June</textPath></text><path d="M 110.21172684928248 118.3499491758327 l 3.108524286393674 5.585858641643302 a27.39255348069302,27.39255348069302 0 0,0 -0.4139891237828576,0.2257398786668745 l -3.011912350742168 -5.6385391720699465" fill="#ff1101" stroke="none" /><path d="M 109.89434966115114 118.52300852407294 l 3.741567963134989 7.004512438716908 a28.94119168178794,28.94119168178794 0 0,0 -0.4414346184476756,0.23093772888331118 l -3.6204424421608175 -7.067879586544936" fill="#ff2904" stroke="none" /><path d="M 102.34483914955558 120.86867818915974 l 6.943222471158444 61.793524461500816 a83.18237695407035,83.18237695407035 0 0,0 -1.4242700614070969,0.1476314153537795 l -5.878519813145744 -61.90388524531035" fill="#4cdaff" stroke="none" /><path d="M 101.62511606390274 120.93702456842531 l 3.925704114901468 50.57642671051699 a71.72855302097676,71.72855302097676 0 0,0 -1.2318089207051035,0.08495275519443368 l -3.054532433417434 -50.636507810227705" fill="#3dffaa" stroke="none" /><line stroke="#e1ed5e" stroke-width="0.3" x1="102.19456741930631" x2="102.32365962044197" y1="184.97166512339345" y2="189.96999836594603" /><path d="M 102.22038585953345 185.97133177190398 a86.0,86.0 0 0,1 -42.740103519485714,-10.115201625700543" fill="none" id="id67" stroke="none" /><text fill="#e1ed5e" style="font-size:6.75px; font-family:Arial;" text-anchor="middle"><textPath startOffset="22.20632615414155" xlink:href="#id67">July</textPath></text><path d="M 90.7491055286396 118.85261126421891 l -24.45832771127122 49.84419030408222 a76.52164534216814,76.52164534216814 0 0,0 -1.177508127143206,-0.5904270196173405 l 25.31268974609719 -49.415795443555574" fill="#43ffdf" stroke="none" /><path d="M 90.10565033884886 118.52300852407294 l -24.520548552343577 45.904414681577165 a73.04298789045491,73.04298789045491 0 0,0 -1.1039132433040724,-0.6019415179924497 l 25.30708460751629 -45.47553251182495" fill="#3effb9" stroke="none" /><line stroke="#e1ed5e" stroke-width="0.3" x1="58.666819895761336" x2="56.23545636021788" y1="174.27360380694188" y2="178.64263932499728" /><path d="M 58.180547188652646 175.14741091055294 a86.0,86.0 0 0,1 -31.652253787137756,-30.449443065178592" fill="none" id="id68" stroke="none" /><text fill="#e1ed5e" style="font-size:6.75px; font-family:Arial;" text-anchor="middle"><textPath startOffset="22.20632615414155" xlink:href="#id68">August</textPath></text><path d="M 88.24862548938628 117.40417183066458 l -32.060118780370296 47.48208949183944 a78.29223366846942,78.29223366846942 0 0,0 -1.1104191802690273,-0.7637564375317 l 32.87269484526222 -46.92319226494264" fill="#45fff2" stroke="none" /><path d="M 83.06392112726016 112.41649034213515 l -35.7941625545506 26.24207628005065 a65.38320223316012,65.38320223316012 0 0,0 -0.6576311214683679,-0.9133921096762512 l 36.24057346839458 -25.62205056492326" fill="#34ff5d" stroke="none" /><line stroke="#e1ed5e" stroke-width="0.3" x1="26.63291911575756" x2="22.317208475507996" y1="142.92168965132927" y2="145.44649492493687" /><path d="M 25.769776987707644 143.4266507060508 a86.0,86.0 0 0,1 -11.730757126820373,-40.83630448921669" fill="none" id="id69" stroke="none" /><text fill="#e1ed5e" style="font-size:6.75px; font-family:Arial;" text-anchor="middle"><textPath startOffset="21.46611528233685" xlink:href="#id69">September</textPath></text><line stroke="#e1ed5e" stroke-width="0.3" x1="15.007084014347285" x2="10.007500721073583" y1="101.09737516637583" y2="101.16192664675087" /><path d="M 14.007167355692545 101.11028546245083 a86.0,86.0 0 0,1 10.666146001902534,-42.60595125391555" fill="none" id="id70" stroke="none" /><text fill="#e1ed5e" style="font-size:6.75px; font-family:Arial;" text-anchor="middle"><textPath startOffset="22.20632615414155" xlink:href="#id70">October</textPath></text><path d="M 79.01574976396665 99.18683210126434 l -13.50918531759444 -0.5234990869235533 a34.51932465913586,34.51932465913586 0 0,0 0.02811909957782016,-0.5935497495851639 l 13.49817260978312 0.7559599431317262" fill="#ff7c0b" stroke="none" /><path d="M 81.43458229118936 90.18545643968196 l -22.52516588096475 -11.907850672123717 a46.47901107960385,46.47901107960385 0 0,0 0.3800033218429949,-0.7040884428725087 l 22.316854459903283 12.293820098328698" fill="#e0ff1b" stroke="none" /><line stroke="#e1ed5e" stroke-width="0.3" x1="26.266209847984243" x2="21.928928074336255" y1="57.711370442889674" y2="55.22380399835377" /><path d="M 25.398753493254645 57.213857153982495 a86.0,86.0 0 0,1 29.58750427330803,-30.492523968695096" fill="none" id="id71" stroke="none" /><text fill="#e1ed5e" style="font-size:6.75px; font-family:Arial;" text-anchor="middle"><textPath startOffset="21.46611528233685" xlink:href="#id71">November</textPath></text><path d="M 84.31358615837235 86.03803664274999 l -3.971900540724076 -3.535258623680229 a26.317334618181334,26.317334618181334 0 0,0 0.30409850510177194,-0.33579316463981485 l 3.910458395006259 3.6031045755896" fill="#ff0000" stroke="none" /><path d="M 86.10567301691215 84.25364557470407 l -3.8894952021468674 -4.407940741789108 a26.87861501636634,26.87861501636634 0 0,0 0.349557925940743,-0.30313318877480927 l 3.813043477559351 4.474238923983598" fill="#ff0901" stroke="none" /><line stroke="#e1ed5e" stroke-width="0.3" x1="56.762969772571076" x2="54.21961505331055" y1="26.818313649435495" y2="22.513508569990535" /><path d="M 56.25429882871897 25.957352633546506 a86.0,86.0 0 0,1 42.265352541879196,-11.944610805530505" fill="none" id="id72" stroke="none" /><text fill="#e1ed5e" style="font-size:6.75px; font-family:Arial;" text-anchor="middle"><textPath startOffset="22.20632615414155" xlink:href="#id72">December</textPath></text></svg>