<?xml version="1.0" encoding="utf-8" ?>
<svg baseProfile="full" height="200mm" version="1.1" viewBox="0,0,200,200" width="200mm" xmlns="http://www.w3.org/2000/svg" xmlns:ev="http://www.w3.org/2001/xml-events" xmlns:xlink="http://www.w3.org/1999/xlink"><defs /><rect fill="#1a1a1a" height="200" width="200" x="0" y="0" /><text alignment-baseline="middle" fill="#e1ed5e" style="dominant-baseline: central; font-size:9.0px; font-family:Arial;" text-anchor="middle" x="100.0" y="100.0">2024</text><line stroke="#e1ed5e" stroke-width="0.3" x1="100.0" x2="100.0" y1="15.0" y2="10.0" /><path d="M 100.0 14.0 a86.0,86.0 0 0,1 42.35913384403234,11.155469271406648" fill="none" id="id85" stroke="none" /><text fill="#e1ed5e" style="font-size:6.75px; font-family:Arial;" text-anchor="middle"><textPath startOffset="22.145653131862478" xlink:href="#id85">January</textPath></text><path d="M 102.15924093988457 79.11130261209362 l 1.0149574872981222 -9.818792994400011 a30.871111111111112,30.871111111111112 0 0,0 0.526667180419231,0.059014156088588454 l -1.1833605693181497 9.799923077804452" fill="#ff750a" stroke="none" /><path d="M 104.64783097203109 79.52079915486377 l 12.431283412068886 -54.77452843929855 a77.16747967479674,77.16747967479674 0 0,0 1.2893136854674825,0.3042745191511681 l -13.369729251276253 54.553057776501156" fill="#44ffeb" stroke="none" /><path d="M 105.3480935250658 79.69241777938227 l 0.693506039195654 -2.6333553901878335 a23.723143631436315,23.723143631436315 0 0,0 0.39292145634815445,0.10709249017179553 l -0.7386088964785014 2.6210624058718963" fill="#ff1001" stroke="none" /><path d="M 106.72888874123014 80.10723608172694 l 6.914456365956019 -20.441361627569087 a42.579132791327915,42.579132791327915 0 0,0 0.6903785212750402,0.24014948703214317 l -7.264340659276077 20.319653707968353" fill="#f2ff19" stroke="none" /><path d="M 107.06938296918511 80.22567764915836 l 18.94985098499491 -53.006105838526565 a77.29159891598917,77.29159891598917 0 0,0 1.2455388361509063,0.4573791131451603 l -19.856978972799944 52.67299587637269" fill="#45ffec" stroke="none" /><path d="M 107.74402155503746 80.48000691201159 l 1.0022356868132625 -2.526288639576953 a23.717831978319783,23.717831978319783 0 0,0 0.3771649609235533,0.15338970614128425 l -1.0454551089272555 2.5087116768563753" fill="#ff0f01" stroke="none" /><path d="M 108.4095320186766 80.7573450057729 l 1.0885617739906752 -2.4908423691456227 a23.71831978319783,23.71831978319783 0 0,0 0.3716848165445013,0.1662498908003504 l -1.1311599933908083 2.4717887274354196" fill="#ff0f01" stroke="none" /><path d="M 109.06512990194946 81.05736502329252 l 24.763281683374135 -51.74573457051802 a78.3658536585366,78.3658536585366 0 0,0 1.2084751673878962,0.5911257618323211 l -25.647917100024095 51.313015058588476" fill="#46fff6" stroke="none" /><path d="M 110.02825361518725 81.54914285379988 l 1.2985870186635042 -2.3892538514367065 a23.719349593495934,23.719349593495934 0 0,0 0.3560791815479445,0.19751111958269651 l -1.339410388367549 2.366609816420864" fill="#ff0f01" stroke="none" /><line stroke="#e1ed5e" stroke-width="0.3" x1="143.13028292997686" x2="145.6673583964461" y1="26.7553504044142" y2="22.446841604673864" /><path d="M 143.63769802327073 25.89364864446614 a86.0,86.0 0 0,1 29.32050498858742,28.57503671076993" fill="none" id="id86" stroke="none" /><text fill="#e1ed5e" style="font-size:6.75px; font-family:Arial;" text-anchor="middle"><textPath startOffset="20.669276256404974" xlink:href="#id86">February</textPath></text><path d="M 110.65571695917076 81.90426304109057 l 1.3796740146438509 -2.3429881024148935 a23.719024390243902,23.719024390243902 0 0,0 0.34908445168760316,0.2096151832274419 l -1.4196912228888885 2.3189589186515307" fill="#ff0f01" stroke="none" /><path d="M 117.01052211995028 87.68569379921539 l 16.49776979619521 -11.943113060717593 a41.36699186991869,41.36699186991869 0 0,0 0.41147333432666117,0.5787887749478529 l -16.700358229051833 11.658147059060235" fill="#fffd17" stroke="none" /><line stroke="#e1ed5e" stroke-width="0.3" x1="172.87174338648825" x2="177.1583165268699" y1="56.24261187166439" y2="53.66864786411523" /><path d="M 173.72905801456457 55.72781907015455 a86.0,86.0 0 0,1 12.242430191666344,42.057860355516425" fill="none" id="id87" stroke="none" /><text fill="#e1ed5e" style="font-size:6.75px; font-family:Arial;" text-anchor="middle"><textPath startOffset="22.145653131862474" xlink:href="#id87">March</textPath></text><path d="M 118.36410011445183 89.81374322990088 l 17.80485887751696 -9.876055083093314 a41.36048780487805,41.36048780487805 0 0,0 0.3390666817994153,0.6238445046346541 l -17.971770908931717 9.568955744984056" fill="#fffd17" stroke="none" /><path d="M 118.70294669586156 90.45014215332178 l 2.4190496006444957 -1.2351839624998986 a23.716151761517615,23.716151761517615 0 0,0 0.1820272094859536,0.36417635416549454 l -2.439896723342186 1.1934757521706536" fill="#ff0f01" stroke="none" /><path d="M 119.71291397450082 92.76114493625339 l 2.5535969863987513 -0.937716184409452 a23.72032520325203,23.72032520325203 0 0,0 0.13708069681757304,0.38343910618003757 l -2.5693178532602676 0.8937421218484977" fill="#ff0f01" stroke="none" /><path d="M 119.94978838288452 93.4421083053983 l 2.5857232494817284 -0.849978591094355 a23.721842818428186,23.721842818428186 0 0,0 0.12384528474693357,0.38794359055970584 l -2.599933250005919 0.8054659668432621" fill="#ff1001" stroke="none" /><path d="M 120.26092885502905 94.47779374421319 l 35.11120398242319 -9.569714777998323 a57.39197831978319,57.39197831978319 0 0,0 0.25091368224680755,0.9527601207090521 l -35.27030714547473 8.965574152916473" fill="#4dff2c" stroke="none" /><path d="M 120.43855184770803 95.1765574152323 l 2.64843962850956 -0.6250245410010256 a23.721192411924118,23.721192411924118 0 0,0 0.09012826216058317,0.39712175285993423 l -2.6587787522278097 0.579468454202065" fill="#ff1001" stroke="none" /><path d="M 120.7213421655516 96.59031103205396 l 28.299005164009934 -4.656590530703404 a49.67956639566396,49.67956639566396 0 0,0 0.13124515308806758,0.8426880317455779 l -28.374771809236268 4.1701143170263855" fill="#9fff22" stroke="none" /><path d="M 120.86939407059847 97.66154086499901 l 2.7052918239664674 -0.3031335915742015 a23.72222222222222,23.72222222222222 0 0,0 0.04187266775219203,0.4050800766803923 l -2.7100968842003255 0.2566489926108778" fill="#ff1001" stroke="none" /><path d="M 120.99303781780057 99.45929381324524 l 2.7163891030006804 -0.06996454759778867 a23.717289972899728,23.717289972899728 0 0,0 0.006989336728169634,0.4070938245517926 l -2.7171898713275158 0.02332380707692966" fill="#ff0f01" stroke="none" /><line stroke="#e1ed5e" stroke-width="0.3" x1="184.99686870605535" x2="189.99668451229388" y1="99.2704041080226" y2="99.22748670261217" /><path d="M 185.99683186730306 99.26182062694052 a86.0,86.0 0 0,1 -10.086455211305974,41.156179273409016" fill="none" id="id88" stroke="none" /><text fill="#e1ed5e" style="font-size:6.75px; font-family:Arial;" text-anchor="middle"><textPath startOffset="21.40746469413373" xlink:href="#id88">April</textPath></text><path d="M 120.99922638620191 100.18025310272382 l 2.718761629141944 0.023337298727410666 a23.718861788617886,23.718861788617886 0 0,0 -0.0069897999324091955,0.4071208038766987 l -2.7179603976108666 -0.07000501857318042" fill="#ff0f01" stroke="none" /><path d="M 120.77682067341334 103.0534771498775 l 2.6921654538341553 0.3956556119046313 a23.72108401084011,23.72108401084011 0 0,0 -0.0626671593230576,0.40236811724086446 l -2.68497680237283 -0.4418119110769463" fill="#ff0f01" stroke="none" /><path d="M 120.592083275326 104.11899336999214 l 20.05093321232596 4.0107482016007046 a41.44813008130082,41.44813008130082 0 0,0 -0.14554666639260203,0.6964934871749247 l -19.97912883510899 -4.354358140061038" fill="#fffe18" stroke="none" /><path d="M 120.35273937422433 105.17358676015961 l 2.6370048176179144 0.6703163127113493 a23.720867208672086,23.720867208672086 0 0,0 -0.10370595877096346,0.3937884172441416 l -2.6251093780422208 -0.7154852343282941" fill="#ff0f01" stroke="none" /><path d="M 119.94978838288452 106.5578916946017 l 19.38118465824342 6.370980356407118 a41.401463414634144,41.401463414634144 0 0,0 -0.22773679012517226,0.6732633538293746 l -19.26896244654588 -6.702745384710654" fill="#fffe18" stroke="none" /><path d="M 119.4528033332814 107.91128576633889 l 13.764471266561088 5.597890635434518 a35.85924119241192,35.85924119241192 0 0,0 -0.23679761847239014,0.5682280811875655 l -13.666347803552211 -5.833351226063361" fill="#ffb711" stroke="none" /><path d="M 118.70294669586154 109.54985784667822 l 13.441696040872923 6.863425774345915 a36.092574525745256,36.092574525745256 0 0,0 -0.2864924258743825,0.5493870020564374 l -13.321895546023592 -7.093159019506856" fill="#ffba11" stroke="none" /><line stroke="#e1ed5e" stroke-width="0.3" x1="174.33088141563837" x2="178.70328620479359" y1="141.23008692659167" y2="143.65538615756765" /><path d="M 175.20536237346943 141.71514677278685 a86.0,86.0 0 0,1 -30.301960400862466,31.631185727798858" fill="none" id="id89" stroke="none" /><text fill="#e1ed5e" style="font-size:6.75px; font-family:Arial;" text-anchor="middle"><textPath startOffset="22.145653131862474" xlink:href="#id89">May</textPath></text><path d="M 117.423217284605 111.72311816256416 l 13.567310227473142 9.12869181086142 a37.35252032520326,37.35252032520326 0 0,0 -0.36251557133765583,0.5289210524907444 l -13.408604919320165 -9.360247598422209" fill="#ffcb12" stroke="none" /><path d="M 116.79662413953412 112.60449989151573 l 12.338116436268178 9.2587525916243 a36.425745257452576,36.425745257452576 0 0,0 -0.37960487252330094,0.4969149636131171 l -12.177359586390573 -9.469188468478293" fill="#ffbf11" stroke="none" /><path d="M 115.41159269507618 114.26474011684316 l 10.311904826557324 9.544545159661299 a35.05111111111111,35.05111111111111 0 0,0 -0.41250845867491764,0.4380696880735922 l -10.146540534146146 -9.720156307679389" fill="#ffad10" stroke="none" /><path d="M 113.86319453409587 115.77377054828091 l 2.083218253101379 2.37031996092918 a24.155663956639565,24.155663956639565 0 0,0 -0.313817181301145,0.2710678069329832 l -2.0422215920373787 -2.405731900326881" fill="#ff1602" stroke="none" /><path d="M 113.31354834802062 116.24036423190432 l 7.454590577531648 9.093388405115547 a32.75842818428184,32.75842818428184 0 0,0 -0.4379477846242814,0.3527797345962664 l -7.297392022552114 -9.220016433505219" fill="#ff8e0d" stroke="none" /><path d="M 112.45986205192187 116.90419585922612 l 9.647589664670441 13.088808253369043 a37.26016260162602,37.26016260162602 0 0,0 -0.5181273826775475,0.3750842682141649 l -9.421481271618926 -13.252493292956284" fill="#ffc912" stroke="none" /><path d="M 111.8722381534696 117.32195027204791 l 0.9439877165929476 1.3773062899238084 a22.669756097560974,22.669756097560974 0 0,0 -0.3228861046055276,0.21725218112760528 l -0.9202053238904166 -1.393308145108535" fill="#ff0000" stroke="none" /><path d="M 110.96478420261333 117.91015095944535 l 8.155512817337756 13.321417276538599 a36.61962059620596,36.61962059620596 0 0,0 -0.5389488187419951,0.32362328039724614 l -7.925631242038324 -13.45945455747177" fill="#ffc112" stroke="none" /><line stroke="#e1ed5e" stroke-width="0.3" x1="143.1302829299769" x2="145.66735839644613" y1="173.24464959558577" y2="177.55315839532614" /><path d="M 143.63769802327073 174.10635135553383 a86.0,86.0 0 0,1 -40.68552437913181,11.842963189579606" fill="none" id="id90" stroke="none" /><text fill="#e1ed5e" style="font-size:6.75px; font-family:Arial;" text-anchor="middle"><textPath startOffset="21.407464694133747" xlink:href="#id90">June</textPath></text><path d="M 109.71004243097381 118.62028667847754 l 6.656535449860685 12.76478442220607 a35.396151761517615,35.396151761517615 0 0,0 -0.5411781327008637,0.2763294106039211 l -6.436430095446239 -12.877171784482828" fill="#ffb110" stroke="none" /><path d="M 106.72888874123015 119.89276391827305 l 4.498291213430125 13.298398678538492 a35.03859078590786,35.03859078590786 0 0,0 -0.5714247928113833,0.18783867933567647 l -4.269343682971007 -13.373658279276189" fill="#ffad10" stroke="none" /><path d="M 104.9986988182912 120.39639698878246 l 3.739844673250691 15.259842491986843 a36.71143631436314,36.71143631436314 0 0,0 -0.6133744091779135,0.14475469043406092 l -3.477338110332898 -15.32179332606713" fill="#ffc212" stroke="none" /><path d="M 104.29559338865022 120.5559693870025 l 1.770633727520381 8.473123362809714 a29.656151761517616,29.656151761517616 0 0,0 -0.4992168511106537,0.09985735160545972 l -1.6249203908787686 -8.502270111078037" fill="#ff6409" stroke="none" /><path d="M 102.51750503828377 120.84855314841334 l 1.852213153215048 15.338981960218629 a36.45040650406504,36.45040650406504 0 0,0 -0.621851048688725,0.06967970706273592 l -1.5886262029255238 -15.368517427788337" fill="#ffbf11" stroke="none" /><path d="M 101.80034050326958 120.92268563240118 l 0.2702857307889663 3.141129895123274 a24.152737127371275,24.152737127371275 0 0,0 -0.4133925040295495,0.03199919428880677 l -0.2163242319841809 -3.1453068564071347" fill="#ff1602" stroke="none" /><line stroke="#e1ed5e" stroke-width="0.3" x1="101.45913802915013" x2="101.54496967792366" y1="184.9874750549273" y2="189.98673829345242" /><path d="M 101.47630435890484 185.9873277026323 a86.0,86.0 0 0,1 -42.54439059252881,-10.42667462771756" fill="none" id="id91" stroke="none" /><text fill="#e1ed5e" style="font-size:6.75px; font-family:Arial;" text-anchor="middle"><textPath startOffset="22.145653131862474" xlink:href="#id91">July</textPath></text><path d="M 96.76829788921471 120.74984581791261 l -2.391868268661793 15.35751009533168 a36.54265582655827,36.54265582655827 0 0,0 -0.6190021321759916,-0.1018565652916207 l 2.6551479038908483 -15.314187531544391" fill="#ffc011" stroke="none" /><path d="M 94.30408787586889 120.21278271476187 l -4.466244890622411 15.849127507183455 a37.46639566395664,37.46639566395664 0 0,0 -0.6175532252965605,-0.17976074356669078 l 4.737658128300578 -15.770123069314248" fill="#ffcc13" stroke="none" /><path d="M 93.27111125876986 119.89276391827306 l -8.920219221813932 26.37104311020992 a48.83886178861788,48.83886178861788 0 0,0 -0.7918738351864444,-0.27545482580047026 l 9.371598829045398 -26.214029851840863" fill="#a9ff21" stroke="none" /><path d="M 92.59220618246901 119.65005319985036 l -1.113434716112362 2.953517868490091 a24.156422764227642,24.156422764227642 0 0,0 -0.38676473201267103,-0.14960890699524906 l 1.1639717106185612 -2.933969073356802" fill="#ff1602" stroke="none" /><line stroke="#e1ed5e" stroke-width="0.3" x1="58.13341422392154" x2="55.67067388415222" y1="173.97424548756322" y2="178.32567169271397" /><path d="M 57.64086615596768 174.84453072859336 a86.0,86.0 0 0,1 -31.369924170532247,-30.572349798747897" fill="none" id="id92" stroke="none" /><text fill="#e1ed5e" style="font-size:6.75px; font-family:Arial;" text-anchor="middle"><textPath startOffset="22.145653131862474" xlink:href="#id92">August</textPath></text><path d="M 87.2517909369889 116.68781488649013 l -1.645142478127643 2.1535443136521 a23.710027100271002,23.710027100271002 0 0,0 -0.32131609167458863,-0.24985733634916513 l 1.6818685144374599 -2.1249859256821417" fill="#ff0f01" stroke="none" /><path d="M 86.96720088162412 116.46651593811092 l -1.6818685144374599 2.1249859256821417 a23.710027100271002,23.710027100271002 0 0,0 -0.3169796115836642,-0.25533633728241717 l 1.7180988963763861 -2.0958012946063143" fill="#ff0f01" stroke="none" /><path d="M 85.86807049272751 115.53346607816431 l -1.1220558715504558 1.2333359580915446 a22.66737127371274,22.66737127371274 0 0,0 -0.285576742933209,-0.26432556984576105 l 1.143062385797632 -1.2138926421134064" fill="#ff0000" stroke="none" /><path d="M 85.34317274990678 115.03919595460226 l -19.56176692766279 20.072096165389933 a49.02769647696476,49.02769647696476 0 0,0 -0.5976898302627977,-0.5925814008712184 l 19.90344867805555 -19.733334754290055" fill="#a7ff21" stroke="none" /><path d="M 84.3458050057657 113.99807769240083 l -2.35202815174695 2.1031980766174256 a24.155230352303523,24.155230352303523 0 0,0 -0.27374655101808704,-0.3114733240973151 l 2.3877857667236295 -2.0625124747088104" fill="#ff1602" stroke="none" /><path d="M 83.8745106332314 113.45245675266167 l -10.007334281225384 8.348474180575545 a34.03241192411924,34.03241192411924 0 0,0 -0.37039123782088723,-0.4518170853686366 l 10.149172338284902 -8.175454813508413" fill="#ff9f0e" stroke="none" /><line stroke="#e1ed5e" stroke-width="0.3" x1="26.387840678322732" x2="22.057713659400548" y1="142.50000000000003" y2="145.00000000000006" /><path d="M 25.521815274538298 143.00000000000003 a86.0,86.0 0 0,1 -11.493303480769221,-40.785679425670985" fill="none" id="id93" stroke="none" /><text fill="#e1ed5e" style="font-size:6.75px; font-family:Arial;" text-anchor="middle"><textPath startOffset="21.40746469413373" xlink:href="#id93">September</textPath></text><path d="M 81.4637452351635 109.86951160357371 l -10.679743676369121 5.686361968711743 a33.099241192411924,33.099241192411924 0 0,0 -0.2627322109441451,-0.5038236570259365 l 10.775783956288215 -5.502192068581303" fill="#ff930d" stroke="none" /><path d="M 80.83023694016515 108.57439118712176 l -24.52547177563802 10.969931573835845 a47.8670460704607,47.8670460704607 0 0,0 -0.3290656962146361,-0.7529667107076216 l 24.710171353869626 -10.547302793352374" fill="#b4ff20" stroke="none" /><path d="M 80.41425534168474 107.57618678355246 l -10.11917503084669 3.914314286569963 a31.849864498644987,31.849864498644987 0 0,0 -0.1928726423283598,-0.5116175984243505 l 10.184878356989486 -3.7400284079514674" fill="#ff820c" stroke="none" /><path d="M 79.2786578344484 103.40968896794605 l -33.211639897010514 5.464962706541891 a54.65826558265583,54.65826558265583 0 0,0 -0.14439804842076348,-0.9271390550319756 l 33.30055943756954 -4.894035469578465" fill="#69ff28" stroke="none" /><path d="M 79.03789590574601 101.26102812881392 l -21.06960622571684 1.2674951900913813 a42.10769647696476,42.10769647696476 0 0,0 -0.037211996107501935,-0.7219027832208845 l 21.088259811280913 -0.9056206134937662" fill="#f8ff18" stroke="none" /><line stroke="#e1ed5e" stroke-width="0.3" x1="15.003131293944662" x2="10.003315487706104" y1="100.72959589197737" y2="100.7725132973878" /><path d="M 14.003168132696942 100.73817937305945 a86.0,86.0 0 0,1 10.791469493833604,-42.45332614584628" fill="none" id="id94" stroke="none" /><text fill="#e1ed5e" style="font-size:6.75px; font-family:Arial;" text-anchor="middle"><textPath startOffset="22.145653131862435" xlink:href="#id94">October</textPath></text><path d="M 79.73907114497095 94.47779374421319 l -2.6318028840260728 -0.7173095791488929 a23.72780487804878,23.72780487804878 0 0,0 0.11048288289217607,-0.39206477504087417 l 2.6191015090593144 0.7623822780927803" fill="#ff1001" stroke="none" /><path d="M 80.28708602549916 92.7611449362534 l -2.5607708691459568 -0.9403505335228546 a23.727967479674795,23.727967479674795 0 0,0 0.14368901899350214,-0.3811521941626714 l 2.5442511663380185 0.9841710078796709" fill="#ff1001" stroke="none" /><path d="M 80.68587082218212 91.75594674310238 l -2.8771547135272026 -1.22808626101009 a24.12829268292683,24.12829268292683 0 0,0 0.16587180705677704,-0.3795471554628641 l 2.8556490244534483 1.277295486248821" fill="#ff1502" stroke="none" /><line stroke="#e1ed5e" stroke-width="0.3" x1="26.387840678322718" x2="22.05771365940052" y1="57.49999999999999" y2="54.99999999999999" /><path d="M 25.521815274538284 56.99999999999999 a86.0,86.0 0 0,1 29.574782752854787,-30.34633250058573" fill="none" id="id95" stroke="none" /><text fill="#e1ed5e" style="font-size:6.75px; font-family:Arial;" text-anchor="middle"><textPath startOffset="21.40746469413373" xlink:href="#id95">November</textPath></text><path d="M 82.576782715395 88.27688183743585 l -2.253034023469555 -1.515941840704062 a23.715555555555554,23.715555555555554 0 0,0 0.23016541044518263,-0.335818212416147 l 2.2266788762090592 1.5543947881902438" fill="#ff0f01" stroke="none" /><path d="M 82.98947788004972 87.6856937992154 l -1.3531147031536135 -0.9795506958528354 a22.670460704607045,22.670460704607045 0 0,0 0.2309126552295164,-0.3132773648783392 l 1.3361000283402782 1.002634370000038" fill="#ff0000" stroke="none" /><path d="M 84.10781606972428 86.27271002978789 l -2.0734285654289253 -1.7909782113672015 a23.739837398373982,23.739837398373982 0 0,0 0.26903898305881135,-0.3061169759159905 l 2.0423785184115215 1.8263074650944922" fill="#ff1001" stroke="none" /><path d="M 84.58840730492382 85.73525988315684 l -2.41128080829918 -2.23184551782948 a24.285636856368562,24.285636856368562 0 0,0 0.2858120701452801,-0.3035225139828697 l 2.3726129044176285 2.272909491756861" fill="#ff1802" stroke="none" /><path d="M 85.34317274990677 84.96080404539775 l -43.97048175027968 -45.11758786380673 a84.0,84.0 0 0,0 1.0413100565387983,-0.997551478777726 l 43.189499207875585 45.86575147289003" fill="#4dd2ff" stroke="none" /><path d="M 85.86807049272753 84.46653392183569 l -2.189911079149929 -2.4070958919421486 a24.25420054200542,24.25420054200542 0 0,0 0.31037866343218573,-0.27754251473087344 l 2.1482673888943515 2.444333936556423" fill="#ff1702" stroke="none" /><path d="M 87.83215693770416 82.88440491214696 l -2.200543975674461 -3.095340683458156 a24.797831978319785,24.797831978319785 0 0,0 0.34906480290664305,-0.2436743421676047 l 2.147084081594053 3.1326598414308875" fill="#ff1f03" stroke="none" /><line stroke="#e1ed5e" stroke-width="0.3" x1="56.869717070023135" x2="54.33264160355391" y1="26.7553504044142" y2="22.446841604673864" /><path d="M 56.362301976729285 25.89364864446614 a86.0,86.0 0 0,1 42.16139366436587,-11.88097634709845" fill="none" id="id96" stroke="none" /><text fill="#e1ed5e" style="font-size:6.75px; font-family:Arial;" text-anchor="middle"><textPath startOffset="22.145653131862474" xlink:href="#id96">December</textPath></text><path d="M 89.97174638481275 81.54914285379989 l -2.0708751367947666 -3.8101770041746565 a25.336585365853658,25.336585365853658 0 0,0 0.38392308729491237,-0.20441741943064876 l 2.0051632337132923 3.845164891327881" fill="#ff2703" stroke="none" /></svg>