<?xml version="1.0" encoding="utf-8" ?>
<svg baseProfile="full" height="200mm" version="1.1" viewBox="0,0,200,200" width="200mm" xmlns="http://www.w3.org/2000/svg" xmlns:ev="http://www.w3.org/2001/xml-events" xmlns:xlink="http://www.w3.org/1999/xlink"><defs /><rect fill="#1a1a1a" height="200" width="200" x="0" y="0" /><text alignment-baseline="middle" fill="#e1ed5e" style="dominant-baseline: central; font-size:9.0px; font-family:Arial;" text-anchor="middle" x="100.0" y="100.0">2020</text><line stroke="#e1ed5e" stroke-width="0.3" x1="100.0" x2="100.0" y1="15.0" y2="10.0" /><path d="M 100.0 14.0 a86.0,86.0 0 0,1 42.35913384403234,11.155469271406648" fill="none" id="id37" stroke="none" /><text fill="#e1ed5e" style="font-size:6.75px; font-family:Arial;" text-anchor="middle"><textPath startOffset="22.145653131862478" xlink:href="#id37">January</textPath></text><line stroke="#e1ed5e" stroke-width="0.3" x1="143.13028292997686" x2="145.6673583964461" y1="26.7553504044142" y2="22.446841604673864" /><path d="M 143.63769802327073 25.89364864446614 a86.0,86.0 0 0,1 29.32050498858742,28.57503671076993" fill="none" id="id38" stroke="none" /><text fill="#e1ed5e" style="font-size:6.75px; font-family:Arial;" text-anchor="middle"><textPath startOffset="20.669276256404974" xlink:href="#id38">February</textPath></text><line stroke="#e1ed5e" stroke-width="0.3" x1="172.87174338648825" x2="177.1583165268699" y1="56.24261187166439" y2="53.66864786411523" /><path d="M 173.72905801456457 55.72781907015455 a86.0,86.0 0 0,1 12.242430191666344,42.057860355516425" fill="none" id="id39" stroke="none" /><text fill="#e1ed5e" style="font-size:6.75px; font-family:Arial;" text-anchor="middle"><textPath startOffset="22.145653131862474" xlink:href="#id39">March</textPath></text><line stroke="#e1ed5e" stroke-width="0.3" x1="184.99686870605535" x2="189.99668451229388" y1="99.2704041080226" y2="99.22748670261217" /><path d="M 185.99683186730306 99.26182062694052 a86.0,86.0 0 0,1 -10.086455211305974,41.156179273409016" fill="none" id="id40" stroke="none" /><text fill="#e1ed5e" style="font-size:6.75px; font-family:Arial;" text-anchor="middle"><textPath startOffset="21.40746469413373" xlink:href="#id40">April</textPath></text><path d="M 119.31412917781788 108.2440532568976 l 20.104404564591103 8.581374826831825 a42.85925609016314,42.85925609016314 0 0,0 -0.2946392581608369,0.674192283227215 l -19.9541314244133 -8.925229179834885" fill="#eaff1a" stroke="none" /><line stroke="#e1ed5e" stroke-width="0.3" x1="174.33088141563837" x2="178.70328620479359" y1="141.23008692659167" y2="143.65538615756765" /><path d="M 175.20536237346943 141.71514677278685 a86.0,86.0 0 0,1 -30.301960400862466,31.631185727798858" fill="none" id="id41" stroke="none" /><text fill="#e1ed5e" style="font-size:6.75px; font-family:Arial;" text-anchor="middle"><textPath startOffset="22.145653131862474" xlink:href="#id41">May</textPath></text><path d="M 116.57777611688842 112.89097897827486 l 24.264865655333193 18.86850629831492 a51.73766801826251,51.73766801826251 0 0,0 -0.5512120540956092,0.696438423672665 l -23.937387170596022 -19.282264665902268" fill="#85ff25" stroke="none" /><path d="M 114.39649973595853 115.28858382429668 l 4.632573997280621 4.9196330482179045 a27.757479646243734,27.757479646243734 0 0,0 -0.3497048922740288,0.32368162749794116 l -4.547439333692624 -4.998432421848226" fill="#ff5107" stroke="none" /><path d="M 113.31354834802062 116.24036423190432 l 5.311936188810776 6.479698441606402 a29.37873247980588,29.37873247980588 0 0,0 -0.39276459579260103,0.31638335602358336 l -5.199920822662922 -6.569930091423389" fill="#ff6709" stroke="none" /><line stroke="#e1ed5e" stroke-width="0.3" x1="143.1302829299769" x2="145.66735839644613" y1="173.24464959558577" y2="177.55315839532614" /><path d="M 143.63769802327073 174.10635135553383 a86.0,86.0 0 0,1 -40.68552437913181,11.842963189579606" fill="none" id="id42" stroke="none" /><text fill="#e1ed5e" style="font-size:6.75px; font-family:Arial;" text-anchor="middle"><textPath startOffset="21.407464694133747" xlink:href="#id42">June</textPath></text><path d="M 106.72888874123015 119.89276391827305 l 0.4181832161354774 1.2362843722166221 a22.305096261294338,22.305096261294338 0 0,0 -0.36376134781294495,0.11957558024456107 l -0.3968991306747982 -1.2432808738632024" fill="#ff0300" stroke="none" /><path d="M 103.2317021107853 120.74984581791261 l 1.237578574423512 7.946142226766014 a29.041938635420323,29.041938635420323 0 0,0 -0.4932633521779344,0.07249272631373585 l -1.1009901166378921 -7.966216026378632" fill="#ff6309" stroke="none" /><path d="M 102.51750503828377 120.84855314841334 l 2.2557041264228546 18.68046603747106 a39.81616359630918,39.81616359630918 0 0,0 -0.6792715215498469,0.07611379081446973 l -1.9346967032722084 -18.7164355887925" fill="#ffef16" stroke="none" /><path d="M 102.15924093988457 120.88869738790638 l 0.566195289245335 5.477425812487701 a26.506611538584337,26.506611538584337 0 0,0 -0.4530111644943672,0.04290062827154873 l -0.4720845613659526 -5.486338196264434" fill="#ff4006" stroke="none" /><path d="M 101.08105385017728 120.97215588758144 l 0.06609542737893068 1.28223363361588 a22.28393601736854,22.28393601736854 0 0,0 -0.38219522408930917,0.01641310740722903 l -0.044074442688791925 -1.2831793094489399" fill="#ff0300" stroke="none" /><line stroke="#e1ed5e" stroke-width="0.3" x1="101.45913802915013" x2="101.54496967792366" y1="184.9874750549273" y2="189.98673829345242" /><path d="M 101.47630435890484 185.9873277026323 a86.0,86.0 0 0,1 -42.54439059252881,-10.42667462771756" fill="none" id="id43" stroke="none" /><text fill="#e1ed5e" style="font-size:6.75px; font-family:Arial;" text-anchor="middle"><textPath startOffset="22.145653131862474" xlink:href="#id43">July</textPath></text><path d="M 97.48249496171623 120.84855314841334 l -0.7939725892649857 6.575232015010791 a27.622995434373106,27.622995434373106 0 0,0 -0.47027778540941545,-0.06088687461051674 l 0.9067281965651952 -6.560633544199876" fill="#ff4f07" stroke="none" /><path d="M 94.30408787586889 120.21278271476187 l -0.3469921805679776 1.23135283633117 a22.27930972829731,22.27930972829731 0 0,0 -0.3672266663571037,-0.10689433055777402 l 0.3680788593066881 -1.22521481147088" fill="#ff0300" stroke="none" /><path d="M 90.28995756902619 118.62028667847754 l -3.2719752122900037 6.2744438956691715 a28.07633153475304,28.07633153475304 0 0,0 -0.42543822409727916,-0.22652189142853227 l 3.3792022521738443 -6.217351536518065" fill="#ff5607" stroke="none" /><line stroke="#e1ed5e" stroke-width="0.3" x1="58.13341422392154" x2="55.67067388415222" y1="173.97424548756322" y2="178.32567169271397" /><path d="M 57.64086615596768 174.84453072859336 a86.0,86.0 0 0,1 -31.369924170532247,-30.572349798747897" fill="none" id="id44" stroke="none" /><text fill="#e1ed5e" style="font-size:6.75px; font-family:Arial;" text-anchor="middle"><textPath startOffset="22.145653131862474" xlink:href="#id44">August</textPath></text><path d="M 88.72937992617639 117.7192867562869 l -3.796825446893122 5.969240238460309 a28.07444079052393,28.07444079052393 0 0,0 -0.40442484311825544,-0.2621432971869196 l 3.8987359222683873 -5.903183099569495" fill="#ff5607" stroke="none" /><path d="M 88.4268655584334 117.5232005979908 l -3.3403167588045526 5.057665312789651 a27.061162798122666,27.061162798122666 0 0,0 -0.38543305911093856,-0.2593365635007378 l 3.426646106012497 -4.999579075231792" fill="#ff4706" stroke="none" /><path d="M 88.1277618465304 117.32195027204791 l -6.809193486352929 9.934816791801657 a33.044322339644324,33.044322339644324 0 0,0 -0.4651458996397746,-0.3247079629996188 l 6.978734477166469 -9.81646401299691" fill="#ff990e" stroke="none" /><path d="M 87.54013794807813 116.9041958592261 l -17.973397752778794 24.38436594262964 a51.29257878100955,51.29257878100955 0 0,0 -0.7042886563125311,-0.5285113376558094 l 18.389339398002093 -24.072235577709815" fill="#8aff24" stroke="none" /><path d="M 86.96720088162412 116.46651593811092 l -3.4436449308690444 4.350932875148653 a26.54881134063408,26.54881134063408 0 0,0 -0.35493134913650026,-0.2859075705924404 l 3.5178270503608067 -4.2911770107628024" fill="#ff4006" stroke="none" /><path d="M 86.13680546590413 115.77377054828092 l -1.7260188417122544 1.9638926009599085 a23.61457744005619,23.61457744005619 0 0,0 -0.30219346833004435,-0.27022326279812087 l 1.7594773368656695 -1.9339738082784053" fill="#ff1602" stroke="none" /><path d="M 85.08716467003676 114.78537596483092 l -4.237823948186976 4.2016034483271545 a26.967631301682577,26.967631301682577 0 0,0 -0.32311485605723395,-0.3315443071799156 l 4.309325605395019 -4.128236449079502" fill="#ff4606" stroke="none" /><path d="M 84.3458050057657 113.99807769240083 l -10.742183394367286 9.60572663083314 a35.41056862807701,35.41056862807701 0 0,0 -0.4013011215436804,-0.45660701048588603 l 10.905495579869559 -9.419907342535954" fill="#ffb811" stroke="none" /><path d="M 83.20337586046588 112.60449989151573 l -5.911708106206681 4.436255974078225 a28.39112033459979,28.39112033459979 0 0,0 -0.28918110958682575,-0.39232971399470823 l 5.986991235377337 -4.334119950814637" fill="#ff5a08" stroke="none" /><path d="M 82.98947788004972 112.3143062007846 l -6.81617883321442 4.934387826524541 a29.414777305960857,29.414777305960857 0 0,0 -0.29258585044375157,-0.4115586401790364 l 6.899879782188132 -4.816651959636001" fill="#ff6809" stroke="none" /><path d="M 82.78059297857968 112.02048342749411 l -2.910580628859953 2.031811326027336 a24.549610804252737,24.549610804252737 0 0,0 -0.2382601256712424,-0.3476286438444644 l 2.9450304913465204 -1.9815479471128208" fill="#ff2403" stroke="none" /><path d="M 82.576782715395 111.72311816256416 l -2.9654236826767355 1.9952693963590018 a24.574190479231188,24.574190479231188 0 0,0 -0.23249005150143773,-0.35201956998482925 l 2.9992381730989 -1.9440699480351116" fill="#ff2403" stroke="none" /><path d="M 82.37810715431573 111.42229804090323 l -6.437625550941275 4.172791104934774 a28.671714823920055,28.671714823920055 0 0,0 -0.2641652175798211,-0.41531159871187096 l 6.508308460146987 -4.061665831544231" fill="#ff5e08" stroke="none" /><path d="M 81.99639281039703 110.81064883170644 l -5.831223574208684 3.5014822116505195 a27.801731106925068,27.801731106925068 0 0,0 -0.24217464396950306,-0.41126548989442363 l 5.890471928307957 -3.400865553462537" fill="#ff5207" stroke="none" /><line stroke="#e1ed5e" stroke-width="0.3" x1="26.387840678322732" x2="22.057713659400548" y1="142.50000000000003" y2="145.00000000000006" /><path d="M 25.521815274538298 143.00000000000003 a86.0,86.0 0 0,1 -11.493303480769221,-40.785679425670985" fill="none" id="id45" stroke="none" /><text fill="#e1ed5e" style="font-size:6.75px; font-family:Arial;" text-anchor="middle"><textPath startOffset="21.40746469413373" xlink:href="#id45">September</textPath></text><path d="M 81.81346652052679 110.50000000000001 l -3.689658085010865 2.1302250885987046 a25.260450177197406,25.260450177197406 0 0,0 -0.2135911017147653,-0.377395010825911 l 3.725682551747009 -2.0665733076736723" fill="#ff2e04" stroke="none" /><path d="M 81.63589988554817 110.18625677009913 l -3.162569974501016 1.7542242534564196 a24.61651096708279,24.61651096708279 0 0,0 -0.20180223043945436,-0.37129337454968064 l 3.1922175545558 -1.699676045432152" fill="#ff2503" stroke="none" /><path d="M 81.4637452351635 109.86951160357371 l -3.181032240707089 1.6937204958230216 a24.603838957887678,24.603838957887678 0 0,0 -0.19529816316760332,-0.3745099789019328 l 3.2096384728496417 -1.638864273816586" fill="#ff2503" stroke="none" /><path d="M 81.29705330413844 109.54985784667822 l -3.2200644953045368 1.6441878751704067 a24.615545480667922,24.615545480667922 0 0,0 -0.1889302741387853,-0.37798710765084326 l 3.247814682655059 -1.5886689113558106" fill="#ff2503" stroke="none" /><path d="M 81.1358732173502 109.22738970284198 l -25.18208246573772 12.317818424236957 a49.03330034162383,49.03330034162383 0 0,0 -0.3633618373256191,-0.7592864882658524 l 25.389823561023253 -11.883719433906" fill="#a3ff22" stroke="none" /><path d="M 80.83023694016515 108.57439118712176 l -1.5770482575995795 0.7053936263802768 a22.72761725359982,22.72761725359982 0 0,0 -0.15624275590030406,-0.35751400202289807 l 1.5889248955168513 -0.6782175545815293" fill="#ff0a01" stroke="none" /><path d="M 80.68587082218212 108.24405325689762 l -3.3235151144392203 1.41861097392933 a24.613614507838193,24.613614507838193 0 0,0 -0.16253677165614136,-0.3900290825406184 l 3.3473777306318473 -1.3613493819474303" fill="#ff2503" stroke="none" /><path d="M 80.5471966667186 107.91128576633889 l -3.338471463277698 1.3577272805493485 a24.603999872290157,24.603999872290157 0 0,0 -0.15575658781693136,-0.3926083490324762 l 3.361286726060754 -1.300217914303307" fill="#ff2503" stroke="none" /><path d="M 80.41425534168474 107.57618678355246 l -3.3743059528985353 1.305254030929008 a24.617959196705087,24.617959196705087 0 0,0 -0.14907852556805254,-0.39544850066356635 l 3.396215162281024 -1.2471372500712965" fill="#ff2503" stroke="none" /><path d="M 80.16572619554312 106.89939002012753 l -19.917686548159928 6.928405302316832 a42.0883151878931,42.0883151878931 0 0,0 -0.23151495169803818,-0.6844328171842479 l 20.03368692143033 -6.585470810658422" fill="#f3ff19" stroke="none" /><path d="M 79.94057633289273 106.21446072829308 l -3.062768693138374 0.948853570233144 a24.206380383768078,24.206380383768078 0 0,0 -0.11956070727601792,-0.3979787095092509 l 3.0786057204180217 -0.8961372571331696" fill="#ff1f03" stroke="none" /><path d="M 79.83685265289637 105.86919833188381 l -3.4478653646917907 1.0036233579335454 a24.590965805689475,24.590965805689475 0 0,0 -0.11450198656299425,-0.40632715610222064 l 3.4645858433293597 -0.9442882779283291" fill="#ff2403" stroke="none" /><path d="M 79.73907114497094 105.5222062557868 l -3.4894648485898667 0.9510691614441025 a24.616752338686503,24.616752338686503 0 0,0 -0.10762270538648193,-0.4086609421091676 l 3.505277034781081 -0.8910277149621322" fill="#ff2503" stroke="none" /><path d="M 79.64726062577567 105.17358676015961 l -3.5076553440978255 0.8916322718901424 a24.61920628332429,24.61920628332429 0 0,0 -0.10060166601798405,-0.4104891277560798 l 3.522444536632103 -0.831287319525963" fill="#ff2503" stroke="none" /><path d="M 79.56144815229197 104.8234425847677 l -3.4789846358288923 0.82103090127158 a24.574552536636762,24.574552536636762 0 0,0 -0.09337058926210051,-0.4114080443187188 l 3.492566086648659 -0.7611885230138349" fill="#ff2403" stroke="none" /><path d="M 79.48165901384964 104.47187691870673 l -34.911982409228166 7.608904074042992 a56.731525813352064,56.731525813352064 0 0,0 -0.1992148848525289,-0.9533153406194806 l 35.03745500490506 -7.0084722821381025" fill="#51ff2b" stroke="none" /><path d="M 79.34024301695615 103.76489593502545 l -1.8416675038133423 0.3356131683671806 a22.87199770122282,22.87199770122282 0 0,0 -0.0670750548927145,-0.38687109211897786 l 1.8471573761982911 -0.3039490433276101" fill="#ff0c01" stroke="none" /><path d="M 79.2786578344484 103.40968896794605 l -3.540219576086752 0.5825417840335293 a24.58782797484116,24.58782797484116 0 0,0 -0.06495695274310243,-0.4170702335845202 l 3.549698020968122 -0.521683368517559" fill="#ff2403" stroke="none" /><path d="M 79.22317932658666 103.0534771498775 l -3.5544343480205205 0.5223794454898819 a24.59261517831487,24.59261517831487 0 0,0 -0.05779906720463564,-0.4182052577196322 l 3.5628779317803687 -0.46128587957016415" fill="#ff2503" stroke="none" /><path d="M 79.17382384314188 102.69636545807758 l -3.594315676702185 0.46535612505587354 a24.62431531560295,24.62431531560295 0 0,0 -0.05067673977260137,-0.41967610251839416 l 3.6017745027344477 -0.40358634561408013" fill="#ff2503" stroke="none" /><path d="M 79.13060592940153 102.33845913500099 l -3.5695519077581026 0.3999757366370793 a24.59189106350372,24.59189106350372 0 0,0 -0.04340774124169427,-0.41993052018491556 l 3.5758920414814632 -0.3386406941692323" fill="#ff2403" stroke="none" /><path d="M 79.03789590574601 101.26102812881392 l -3.6490565242228215 0.2195181790905369 a24.65565339548546,24.65565339548546 0 0,0 -0.021789035139517483,-0.42270146071912135 l 3.6522871488189117 -0.1568449249946848" fill="#ff2503" stroke="none" /><path d="M 79.01933749520258 100.90099992219065 l -3.671900628533493 0.15768721220523807 a24.67528495258772,24.67528495258772 0 0,0 -0.014541160701439829,-0.42335002802440924 l 3.674066476231781 -0.09463091961670897" fill="#ff2603" stroke="none" /><path d="M 79.00696218219943 100.54070618675478 l -58.30408906787257 1.5017065155462423 a79.3234251779956,79.3234251779956 0 0,0 -0.023376116311529672,-1.3615415829193636 l 58.32127661578276 -0.5006180166578263" fill="#47feff" stroke="none" /><line stroke="#e1ed5e" stroke-width="0.3" x1="15.003131293944662" x2="10.003315487706104" y1="100.72959589197737" y2="100.7725132973878" /><path d="M 14.003168132696942 100.73817937305945 a86.0,86.0 0 0,1 10.791469493833604,-42.45332614584628" fill="none" id="id46" stroke="none" /><text fill="#e1ed5e" style="font-size:6.75px; font-family:Arial;" text-anchor="middle"><textPath startOffset="22.145653131862435" xlink:href="#id46">October</textPath></text><path d="M 79.00077361379809 99.81974689727619 l -3.8282137461311683 -0.032860610812001666 a24.82835477794451,24.82835477794451 0 0,0 0.0073167605636141305,-0.4261646214821244 l 3.827085553968888 0.09857214826317846" fill="#ff2803" stroke="none" /><path d="M 79.00696218219943 99.45929381324524 l -1.070208593098513 -0.027564777066985804 a22.07056351968328,22.07056351968328 0 0,0 0.013006196748189251,-0.37866122731814966 l 1.0695777093534733 0.045932268949274005" fill="#ff0000" stroke="none" /><path d="M 79.13060592940154 97.66154086499901 l -62.608182211795395 -7.015377405002977 a84.0,84.0 0 0,0 0.17287165496132673,-1.431625292306255 l 62.4785284705744 8.089096374232668" fill="#4dd2ff" stroke="none" /><path d="M 79.22317932658666 96.9465228501225 l -3.5839269391619246 -0.5267138407545129 a24.622424571373838,24.622424571373838 0 0,0 0.06504835119799421,-0.417657077229753 l 3.5743570958256625 0.5881590999157159" fill="#ff2503" stroke="none" /><path d="M 79.34024301695615 96.23510406497455 l -5.930387826297126 -1.0807142135638481 a27.028054659812906,27.028054659812906 0 0,0 0.08709946053476203,-0.4557411822466248 l 5.9109620734802055 1.1823579608437873" fill="#ff4706" stroke="none" /><path d="M 79.407916724674 95.88100663000787 l -3.5272086807187812 -0.7055405213841506 a24.59708055298362,24.59708055298362 0 0,0 0.08637357271497437,-0.41332881302645297 l 3.51457739717944 0.7659857856960126" fill="#ff2503" stroke="none" /><path d="M 79.48165901384962 95.52812308129327 l -3.516267551380914 -0.7663541469376806 a24.598810382810257,24.598810382810257 0 0,0 0.09346275653099406,-0.41181415031146323 l 3.502593933292258 0.826602631188152" fill="#ff2503" stroke="none" /><path d="M 79.56144815229197 95.17655741523228 l -3.516806495446822 -0.8299567571578288 a24.613413364835097,24.613413364835097 0 0,0 0.10057799436730015,-0.41039253934332004 l 3.5020409745632235 0.8902051211092665" fill="#ff2503" stroke="none" /><path d="M 79.64726062577567 94.8264132398404 l -3.471473851541495 -0.8824350779689478 a24.58187414194949,24.58187414194949 0 0,0 0.1074702203697749,-0.40808193166372003 l 3.4558141503669946 0.9418975140054524" fill="#ff2403" stroke="none" /><path d="M 79.94057633289273 93.78553927170692 l -3.418754455123141 -1.0591388692725865 a24.57905813990613,24.57905813990613 0 0,0 0.12832057262361568,-0.40196236609254415 l 3.4000691667222678 1.1176702690565223" fill="#ff2403" stroke="none" /><path d="M 80.05021161711548 93.44210830539832 l -3.443903796411939 -1.1320795825018948 a24.625200344816577,24.625200344816577 0 0,0 0.13545569697750187,-0.4004506992139599 l 3.4239626778620718 1.1910319561900162" fill="#ff2503" stroke="none" /><path d="M 80.16572619554312 93.10060997987247 l -3.432207697016443 -1.193900001848267 a24.633929951150986,24.633929951150986 0 0,0 0.1423604547629094,-0.3982075288274664 l 3.41120707220959 1.2526424870566548" fill="#ff2503" stroke="none" /><path d="M 80.28708602549916 92.7611449362534 l -3.4103762862689635 -1.2523374109516725 a24.63304492193736,24.63304492193736 0 0,0 0.14916987991862166,-0.3956908289320007 l 3.388375722535906 1.310696520077818" fill="#ff2503" stroke="none" /><path d="M 80.41425534168474 92.42381321644754 l -3.3866498307937234 -1.3100289080755645 a24.631194406308868,24.631194406308868 0 0,0 0.15592874388292918,-0.39304229477945674 l 3.363662411944663 1.367972220068604" fill="#ff2503" stroke="none" /><path d="M 80.68587082218212 91.75594674310238 l -3.4027671141178115 -1.4524389399769162 a24.699784170364932,24.699784170364932 0 0,0 0.16980056931876666,-0.3885369323724362 l 3.377332662782068 1.5106379421252192" fill="#ff2603" stroke="none" /><path d="M 80.83023694016515 91.42560881287825 l -3.3175484140133604 -1.4838972080759212 a24.63429200855656,24.63429200855656 0 0,0 0.17597745231336465,-0.3845424921783768 l 3.291586496844949 1.5406286824689694" fill="#ff2503" stroke="none" /><path d="M 80.9802524753101 91.09779779509293 l -3.279307856477486 -1.534881658792099 a24.620734970147822,24.620734970147822 0 0,0 0.1824522402679486,-0.38125500963147524 l 3.2524763582496323 1.5909491704886616" fill="#ff2503" stroke="none" /><path d="M 81.1358732173502 90.77261029715801 l -3.2545723054161897 -1.5919744032770766 a24.62306822898375,24.62306822898375 0 0,0 0.18898801305432145,-0.37810262415967766 l 3.2267643791501244 1.6476088836005245" fill="#ff2503" stroke="none" /><path d="M 81.29705330413844 90.45014215332179 l -11.057173010101867 -5.645871324434936 a33.41518980875451,33.41518980875451 0 0,0 0.2652401197519142,-0.5086329028450025 l 10.958624821375013 5.834850470384426" fill="#ff9e0e" stroke="none" /><path d="M 81.46374523516351 90.13048839642627 l -3.1481509688851688 -1.676213070622852 a24.56658727371412,24.56658727371412 0 0,0 0.20139296396429673,-0.3705403703320414 l 3.1189126553055218 1.730008274429513" fill="#ff2403" stroke="none" /><line stroke="#e1ed5e" stroke-width="0.3" x1="26.387840678322718" x2="22.05771365940052" y1="57.49999999999999" y2="54.99999999999999" /><path d="M 25.521815274538284 56.99999999999999 a86.0,86.0 0 0,1 29.574782752854787,-30.34633250058573" fill="none" id="id47" stroke="none" /><text fill="#e1ed5e" style="font-size:6.75px; font-family:Arial;" text-anchor="middle"><textPath startOffset="21.40746469413373" xlink:href="#id47">November</textPath></text><path d="M 81.99639281039701 89.18935116829357 l -3.09290026976739 -1.8571977457525646 a24.607660674946523,24.607660674946523 0 0,0 0.2205690504207696,-0.3602829674546539 l 3.0605632548912274 1.9100178293317616" fill="#ff2503" stroke="none" /><path d="M 82.18462484594161 88.88188828441811 l -3.05889098379666 -1.908974208488116 a24.605689473516172,24.605689473516172 0 0,0 0.22670312373678334,-0.3564149649022175 l 3.0256701684339866 1.9612028480690054" fill="#ff2503" stroke="none" /><path d="M 82.576782715395 88.27688183743585 l -3.0057761676492865 -2.022420349122718 a24.622826857380034,24.622826857380034 0 0,0 0.23897070581683788,-0.3486654015128323 l 2.9706157250171352 2.0737204857055853" fill="#ff2503" stroke="none" /><path d="M 82.78059297857968 87.97951657250589 l -2.967185148093869 -2.071325676581115 a24.618643082915618,24.618643082915618 0 0,0 0.24487918260479086,-0.3444532373938453 l 2.931190866959106 2.1219561406844805" fill="#ff2503" stroke="none" /><path d="M 83.42222388311158 87.10902102172516 l -2.839155212928178 -2.207744266049733 a24.59651735257495,24.59651735257495 0 0,0 0.2620507914799219,-0.331092614510922 l 2.8008379908066945 2.2561568244753376" fill="#ff2503" stroke="none" /><path d="M 83.64595745247003 86.82634096563983 l -2.80779293626607 -2.2617592362226535 a24.605448101912454,24.605448101912454 0 0,0 0.26779302036909086,-0.3266639423142544 l 2.768553096658349 2.309625460235401" fill="#ff2503" stroke="none" /><path d="M 83.8745106332314 86.54754324733833 l -2.756752827947698 -2.2997812563858755 a24.590080776475848,24.590080776475848 0 0,0 0.2731904537595719,-0.3218176676011505 l 2.7168678106810114 2.3467657064365826" fill="#ff2403" stroke="none" /><path d="M 84.10781606972428 86.27271002978789 l -2.697475094298548 -2.330014739907369 a24.564455157881294,24.564455157881294 0 0,0 0.2783842165457635,-0.3167501361432921 l 2.657079813794192 2.375977153861961" fill="#ff2403" stroke="none" /><path d="M 84.34580500576568 86.00192230759919 l -2.689466769371164 -2.404937769246768 a24.607902046550237,24.607902046550237 0 0,0 0.2842825530452972,-0.3124763247701315 l 2.647786515484001 2.450751669574557" fill="#ff2503" stroke="none" /><path d="M 85.08716467003674 85.21462403516908 l -2.5661541953027225 -2.544221385255006 a24.613614507838193,24.613614507838193 0 0,0 0.30006115184821947,-0.29749654202927933 l 2.5221011233245263 2.5878979375129587" fill="#ff2503" stroke="none" /><path d="M 85.34317274990677 84.96080404539775 l -2.5134813871109083 -2.5790533288004727 a24.60126432744804,24.60126432744804 0 0,0 0.304970761282629,-0.2921550905910418 l 2.468838139962979 2.621820549697083" fill="#ff2503" stroke="none" /><path d="M 85.60350026404147 84.71141617570332 l -2.4216786982813794 -2.5717388568912054 a24.532473420388875,24.532473420388875 0 0,0 0.30907438586031655,-0.28607463733965055 l 2.3771745411071095 2.6129312403632214" fill="#ff2403" stroke="none" /><path d="M 85.86807049272753 84.46653392183569 l -2.4280153768684043 -2.6688142248684295 a24.608022732352097,24.608022732352097 0 0,0 0.31490649185276204,-0.2815913268245283 l 2.38184385819225 2.7101010815763584" fill="#ff2503" stroke="none" /><path d="M 86.13680546590413 84.22622945171909 l -1.223507363201043 -1.3921267831739408 a22.853371859136043,22.853371859136043 0 0,0 0.29689851427536057,-0.25645386531291775 l 1.199429369162834 1.4129247809515693" fill="#ff0b01" stroke="none" /><path d="M 86.96720088162412 83.53348406188908 l -2.2526049613765484 -2.8460927819009516 a24.629665719485327,24.629665719485327 0 0,0 0.33377894908208317,-0.2595485296501532 l 2.2034160676592207 2.8843423631719096" fill="#ff2503" stroke="none" /><path d="M 87.25179093698888 83.31218511350988 l -2.212622813580659 -2.8963942891235868 a24.64483190191884,24.64483190191884 0 0,0 0.3383935056054875,-0.25393679523106577 l 2.1625763190644194 2.9339501116186537" fill="#ff2503" stroke="none" /><path d="M 87.54013794807813 83.09580414077388 l -2.1332178113720763 -2.894119657469331 a24.595350723156987,24.595350723156987 0 0,0 0.34201473655591436,-0.24759229384209339 l 2.083222064442194 2.9303127226845036" fill="#ff2503" stroke="none" /><path d="M 87.83215693770416 82.88440491214696 l -2.1139204124765034 -2.9734937936542085 a24.648331790172726,24.648331790172726 0 0,0 0.3469603748358471,-0.24220528793606877 l 2.062564946466891 3.009343897395404" fill="#ff2503" stroke="none" /><path d="M 88.12776184653039 82.6780497279521 l -4.091856847210099 -5.970141426702935 a28.237809137639285,28.237809137639285 0 0,0 0.40219207281317443,-0.2706127758506208 l 3.9887684862999353 6.039503876610666" fill="#ff5808" stroke="none" /><path d="M 89.03521579738668 82.08984904055464 l -1.8915749331752032 -3.0897454959666377 a24.622786628779412,24.622786628779412 0 0,0 0.3623855613919676,-0.21760211743298707 l 1.8382566152258013 3.1217616139355484" fill="#ff2503" stroke="none" /><line stroke="#e1ed5e" stroke-width="0.3" x1="56.869717070023135" x2="54.33264160355391" y1="26.7553504044142" y2="22.446841604673864" /><path d="M 56.362301976729285 25.89364864446614 a86.0,86.0 0 0,1 42.16139366436587,-11.88097634709845" fill="none" id="id48" stroke="none" /><text fill="#e1ed5e" style="font-size:6.75px; font-family:Arial;" text-anchor="middle"><textPath startOffset="22.145653131862474" xlink:href="#id48">December</textPath></text><path d="M 89.34428304082924 81.90426304109057 l -2.728592951756853 -4.633747359480236 a26.377437501995466,26.377437501995466 0 0,0 0.39215403174593083,-0.226410235792309 l 2.648646452150522 4.67990449254872" fill="#ff3e05" stroke="none" /><path d="M 89.65649057296885 81.72400993836675 l -2.650865678335818 -4.683825652575991 a26.38194310526484,26.38194310526484 0 0,0 0.3960505186509418,-0.21968254647744173 l 2.5700709715287737 4.728641114486579" fill="#ff3e05" stroke="none" /><path d="M 89.97174638481275 81.54914285379989 l -1.6994081376201817 -3.1267195648934982 a24.55870246799272,24.55870246799272 0 0,0 0.372135895004069,-0.19814140345202086 l 1.6454834268295508 3.1554314360680946" fill="#ff2403" stroke="none" /><path d="M 90.28995756902619 81.37971332152246 l -1.6700553741836897 -3.2025513850523586 a24.61184444941094,24.61184444941094 0 0,0 0.37629491791073894,-0.19213886629266771 l 1.6148332345593683 3.23074820301786" fill="#ff2503" stroke="none" /><path d="M 91.26138138417902 80.90454125486306 l -1.500483396463391 -3.2788270154112684 a24.60585038791865,24.60585038791865 0 0,0 0.3855931225716143,-0.17247089917976885 l 1.4439768710361578 3.304101665500883" fill="#ff2503" stroke="none" /><path d="M 91.5904679813234 80.7573450057729 l -1.4634534986225936 -3.3486680009716894 a24.654486766067492,24.654486766067492 0 0,0 0.3892649072048937,-0.16615404176358534 l 1.4057535162472687 3.3732966923946788" fill="#ff2503" stroke="none" /><path d="M 91.92203290615298 80.6158196554323 l -1.4014980181134784 -3.363085046033282 a24.64342390089716,24.64342390089716 0 0,0 0.39188387965226046,-0.1593757622504908 l 1.343559677270777 3.386648064863064" fill="#ff2503" stroke="none" /><path d="M 92.25597844496254 80.48000691201159 l -1.3437080254375982 -3.3870219991516484 a24.643826186903354,24.643826186903354 0 0,0 0.3945684724916775,-0.15262756145596834 l 1.2853672904523912 3.409589448745657" fill="#ff2503" stroke="none" /><path d="M 92.592206182469 80.34994680014964 l -1.2781016403749816 -3.3903164487041715 a24.623229143386226,24.623229143386226 0 0,0 0.39679846968705507,-0.14570989430058584 l 1.2197140190337996 3.411757192013479" fill="#ff2503" stroke="none" /><path d="M 93.27111125876988 80.10723608172694 l -6.1052532444837775 -18.04909638490823 a40.0537134829667,40.0537134829667 0 0,0 0.6532136257470189,-0.21472429325426365 l 5.794516881088998 18.15124159956452" fill="#fff216" stroke="none" /><path d="M 93.61358852112211 79.99465700312896 l -1.082131863215812 -3.3897626488794805 a24.558300181986528,24.558300181986528 0 0,0 0.4027086051627502,-0.1247601552896708 l 1.0237826251814455 3.4078393919757937" fill="#ff2403" stroke="none" /><path d="M 93.95794788825049 79.88797359093562 l -1.0286438912079479 -3.4240209655369314 a24.575196194246672,24.575196194246672 0 0,0 0.40506943363789033,-0.11790980858681191 l 0.9697144451884331 3.4411744684262637" fill="#ff2403" stroke="none" /><path d="M 94.30408787586887 79.78721728523814 l -0.9639641581169786 -3.4207687282059394 a24.553995721720252,24.553995721720252 0 0,0 0.4066826853992694,-0.11084317434314225 l 0.9051000717830315 3.4368123966932216" fill="#ff2403" stroke="none" /><path d="M 94.6519064749342 79.69241777938228 l -0.9139927862808263 -3.470579482100768 a24.588914147057885,24.588914147057885 0 0,0 0.4091064975389353,-0.10399327187588417 l 0.8542809955165128 3.485757985811915" fill="#ff2403" stroke="none" /><path d="M 95.00130118170881 79.60360301121753 l -0.8477790642289681 -3.45922788736924 a24.561598927237316,24.561598927237316 0 0,0 0.41037501506209495,-0.09684738616141988 l 0.7882718954269672 3.4732714171768926" fill="#ff2403" stroke="none" /><path d="M 96.05791012581881 79.37332000966035 l -0.6753973859272876 -3.5339645189413003 a24.59792535359663,24.59792535359663 0 0,0 0.41542998807738163,-0.07570518252871503 l 0.6146326642988675 3.5450378754013765" fill="#ff2503" stroke="none" /><path d="M 96.41257539226777 79.30868818359171 l -0.6113614773381437 -3.5261705382960287 a24.5787765397018,24.5787765397018 0 0,0 0.4163439886953942,-0.06850924490235887 l 0.5507399855896767 3.536145781694056" fill="#ff2403" stroke="none" /><path d="M 97.12497278360702 79.19773525538626 l -0.4937233450021689 -3.5723361764264823 a24.60629290252546,24.60629290252546 0 0,0 0.4189188301763809,-0.054237429613498124 l 0.43232669293499404 3.580285202240375" fill="#ff2503" stroke="none" /><path d="M 97.48249496171623 79.15144685158666 l -0.4317672652326076 -3.575652338349922 a24.601626384853613,24.601626384853613 0 0,0 0.4197085474249318,-0.04702921816721849 l 0.3703228162068765 3.5825373170241113" fill="#ff2503" stroke="none" /><path d="M 98.5590905019552 79.04949213459386 l -0.2450351226852919 -3.5627569060269457 a24.57117333418473,24.57117333418473 0 0,0 0.4210512142399088,-0.025329395486272225 l 0.1838395563128993 3.566438279337912" fill="#ff2403" stroke="none" /><path d="M 98.9189461498227 79.02784411241856 l -0.18677818933241008 -3.6234469748542977 a24.62825771846365,24.62825771846365 0 0,0 0.4224030472130775,-0.018139804335780732 l 0.1245493815185125 3.6261193476159073" fill="#ff2503" stroke="none" /><path d="M 99.27912038922189 79.0123766808444 l -0.12520947625485923 -3.6453372856381083 a24.64748698955972,24.64748698955972 0 0,0 0.42298219774532786,-0.010894520992770442 l 0.06261396443878747 3.646949523980924" fill="#ff2503" stroke="none" /><path d="M 99.63950707515114 79.00309439819443 l -0.06176938824947652 -3.59775719509422 a24.598287411002204,24.598287411002204 0 0,0 0.4222623130983278,-0.0036246141024188676 l 8.813262320592131e-16 3.598287411002204" fill="#ff2503" stroke="none" /></svg>