<?xml version="1.0" encoding="utf-8" ?>
<svg baseProfile="full" height="200mm" version="1.1" viewBox="0,0,200,200" width="200mm" xmlns="http://www.w3.org/2000/svg" xmlns:ev="http://www.w3.org/2001/xml-events" xmlns:xlink="http://www.w3.org/1999/xlink"><defs /><rect fill="#1a1a1a" height="200" width="200" x="0" y="0" /><text alignment-baseline="middle" fill="#e1ed5e" style="dominant-baseline: central; font-size:9.0px; font-family:Arial;" text-anchor="middle" x="100.0" y="100.0">2021</text><line stroke="#e1ed5e" stroke-width="0.3" x1="100.0" x2="100.0" y1="15.0" y2="10.0" /><path d="M 100.0 14.0 a86.0,86.0 0 0,1 42.46469731375804,11.215312516191453" fill="none" id="id49" stroke="none" /><text fill="#e1ed5e" style="font-size:6.75px; font-family:Arial;" text-anchor="middle"><textPath startOffset="22.20632615414155" xlink:href="#id49">January</textPath></text><path d="M 101.08401301168833 79.027996857942 l 0.26714298764312566 -5.168317645472327 a26.175217160694565,26.175217160694565 0 0,0 0.4497624634020599,0.027130900040422876 l -0.35606749988479747 5.162953476051601" fill="#ff4006" stroke="none" /><path d="M 101.44485096284872 79.0497635885617 l 0.33787479266435694 -4.899160512602389 a25.91079760362413,25.91079760362413 0 0,0 0.4446907456091846,0.03451656044995937 l -0.4221557276358827 4.892618689963966" fill="#ff3c05" stroke="none" /><path d="M 101.80526077348638 79.07773832637324 l 0.4190571468826571 -4.856707358876519 a25.87475284113141,25.87475284113141 0 0,0 0.4434130185844528,0.0421074090071434 l -0.5025952925573541 4.848774405354197" fill="#ff3c05" stroke="none" /><path d="M 102.16513564639614 79.11191278185805 l 0.5041710388476089 -4.863976374800911 a25.890036258662516,25.890036258662516 0 0,0 0.44288395578343215,0.04976317277107074 l -0.5878216981407663 4.85457724855924" fill="#ff3c05" stroke="none" /><path d="M 102.52436894288641 79.15227682838746 l 0.5874726979391103 -4.851694999666317 a25.88713295712435,25.88713295712435 0 0,0 0.4419121850613432,0.057372884585595606 l -0.6708996115082996 4.8408637919165844" fill="#ff3c05" stroke="none" /><path d="M 103.59715602781102 79.31037775812273 l 0.8476792153427722 -4.875563531895324 a25.94870486144322,25.94870486144322 0 0,0 0.4394040976090516,0.0802982902377447 l -0.9314784340547247 4.86024976030684" fill="#ff3d05" stroke="none" /><path d="M 103.95276090670814 79.375362276772 l 0.8840585011551165 -4.612822971791899 a25.696774978914327,25.696774978914327 0 0,0 0.4337047724234257,0.08699709726547558 l -0.9633296830456675 4.596921918449215" fill="#ff3905" stroke="none" /><path d="M 104.307194497241 79.44645832069477 l 1.0125972438125816 -4.8320222521604315 a25.936982096741936,25.936982096741936 0 0,0 0.43618256861733806,0.09533261514274015 l -1.0956225365834478 4.81387613892182" fill="#ff3c05" stroke="none" /><path d="M 104.66035177308747 79.52364482259891 l 1.0929480627077381 -4.802125206876743 a25.924930656394828,25.924930656394828 0 0,0 0.43427507247899133,0.102778878790923 l -1.175446822149253 4.782600415944951" fill="#ff3c05" stroke="none" /><path d="M 105.01212808612495 79.60689891045804 l 1.4355342881746698 -5.840831549634879 a27.014654760145035,27.014654760145035 0 0,0 0.45061873512959916,0.11487274902920874 l -1.535861911989294 5.815255804436802" fill="#ff4b07" stroke="none" /><path d="M 106.0581310904928 79.89281104454417 l 1.424042972056249 -4.726457828679101 a25.93632474545028,25.93632474545028 0 0,0 0.42636184191687587,0.13247269970667336 l -1.5051901866838433 4.701244994089907" fill="#ff3c05" stroke="none" /><path d="M 106.40334571778207 80.00007090966166 l 1.4894389149911587 -4.652048163117385 a25.884667889780623,25.884667889780623 0 0,0 0.42317386319580014,0.13951376939194304 l -1.5692956004293763 4.625720669466206" fill="#ff3c05" stroke="none" /><path d="M 106.74666289553966 80.11325718540242 l 1.5852754188121265 -4.672823443581661 a25.9344074708496,25.9344074708496 0 0,0 0.42151809446461186,0.14705938643395708 l -1.665475517340012 4.644843203975498" fill="#ff3c05" stroke="none" /><path d="M 107.08798089147638 80.2323363322302 l 1.663737526946909 -4.639996124098351 a25.929258219064927,25.929258219064927 0 0,0 0.41884107940540527,0.1542627042902842 l -1.7433609321248908 4.610670152001742" fill="#ff3c05" stroke="none" /><path d="M 107.4271985657038 80.35727306442388 l 1.7274547785278673 -4.568603115697583 a25.884284434860486,25.884284434860486 0 0,0 0.4154018864992887,0.16116947830620776 l -1.805839830026823 4.538190933500828" fill="#ff3c05" stroke="none" /><path d="M 108.43124777332544 80.76684994638697 l 1.9751451705871053 -4.5056514130396215 a25.919562287512935,25.919562287512935 0 0,0 0.4070826249493263,0.18264610764106406 l -2.0524099140032117 4.470984974882026" fill="#ff3c05" stroke="none" /><path d="M 108.76106565485865 80.91482961587045 l 2.7836553627807086 -6.063935482540671 a27.67233472745137,27.67233472745137 0 0,0 0.43119004128728045,0.20244950601160197 l -2.887623615367587 6.015120993889067" fill="#ff5507" stroke="none" /><path d="M 109.08828744355905 81.06846463323043 l 2.1299436479843474 -4.4368208808821485 a25.92158912066222,25.92158912066222 0 0,0 0.4005857368764136,0.19656568136050173 l -2.2060006518711925 4.399500039386814" fill="#ff3c05" stroke="none" /><path d="M 109.41281617654863 81.2277094730956 l 3.905925445190707 -7.789716261136377 a29.714122618623215,29.714122618623215 0 0,0 0.4552479677639887,0.2331956910157143 l -4.039433900543451 7.721328044808161" fill="#ff700a" stroke="none" /><path d="M 109.73455568895987 81.39251694778311 l 2.2903422876557706 -4.377961014662816 a25.940871425217594,25.940871425217594 0 0,0 0.3938750167287057,0.21039439318082465 l -2.365362350912787 4.337887894980237" fill="#ff3c05" stroke="none" /><path d="M 110.36928655335952 81.73862282372117 l 31.107859660078564 -54.7841315288365 a84.0,84.0 0 0,0 1.2512130701386868,0.7247833704398019 l -32.04626946268258 54.24054400100664" fill="#4dd2ff" stroke="none" /><line stroke="#e1ed5e" stroke-width="0.3" x1="143.23703022742887" x2="145.7803849466894" y1="26.81831364943548" y2="22.513508569990506" /><path d="M 143.74570117128098 25.957352633546492 a86.0,86.0 0 0,1 28.547481713284135,27.462654790039103" fill="none" id="id50" stroke="none" /><text fill="#e1ed5e" style="font-size:6.75px; font-family:Arial;" text-anchor="middle"><textPath startOffset="19.985693538727396" xlink:href="#id50">February</textPath></text><path d="M 110.68208982089419 81.91981866633111 l 2.453731027341262 -4.153110736028802 a25.82380811602772,25.82380811602772 0 0,0 0.3807633613066203,0.22940566479691038 l -2.52485645486552 4.110258461773277" fill="#ff3b05" stroke="none" /><path d="M 110.99172775467656 82.1063720568725 l 2.4767442899390013 -4.031935817877076 a25.73188849374386,25.73188849374386 0 0,0 0.37541703846550717,0.2350861150462753 l -2.5457804807767714 3.988705361507857" fill="#ff3a05" stroke="none" /><path d="M 111.2981086023043 82.29822771554956 l 2.516603663236236 -3.942991393066964 a25.677657012181868,25.677657012181868 0 0,0 0.370532227394886,0.24100446772208026 l -2.584102916415402 3.8990880011853557" fill="#ff3905" stroke="none" /><path d="M 111.60114157652 82.49532879139004 l 2.592092085882134 -3.911142658377717 a25.6921187405984,25.6921187405984 0 0,0 0.36653515073490434,0.2474861699538643 l -2.6590319310235797 3.865944576125183" fill="#ff3905" stroke="none" /><path d="M 111.90073688211348 82.69761687909136 l 2.692558922857161 -3.9146891928108998 a25.751280356847843,25.751280356847843 0 0,0 0.36305486807208837,0.2543431363926463 l -2.7595449305129 3.8677612136543176" fill="#ff3a05" stroke="none" /><path d="M 112.48926042617603 83.11751280151076 l 2.705758465593914 -3.657537043735061 a25.549583068856677,25.549583068856677 0 0,0 0.35131144671438397,0.26460049821517184 l -2.768316066066681 3.6104199560140415" fill="#ff3705" stroke="none" /><path d="M 112.77801427241765 83.33499621200491 l 2.9524415997494198 -3.850555289319543 a25.852183780117734,25.852183780117734 0 0,0 0.35081098835090335,0.27381354087957266 l -3.0182851432597535 3.799163359216746" fill="#ff3b05" stroke="none" /><path d="M 113.06298171725822 83.55741782278167 l 3.0310974445779912 -3.8152904060016377 a25.872780787256428,25.872780787256428 0 0,0 0.3463214642373196,0.2800345390364361 l -3.096322307379802 3.7625497697010717" fill="#ff3c05" stroke="none" /><path d="M 113.34407831869373 83.78471172551755 l 3.079474983548433 -3.7420774518642905 a25.84626761849279,25.84626761849279 0 0,0 0.3410999175334714,0.2856613714257991 l -3.143432438041022 3.688514923044672" fill="#ff3b05" stroke="none" /><path d="M 115.9244219780498 86.31012108654704 l 3.669428138773313 -3.15452749058435 a25.838981975010217,25.838981975010217 0 0,0 0.28704572633655095,0.3397716010997097 l -3.7231844785969814 3.0908969398555337" fill="#ff3b05" stroke="none" /><path d="M 116.38621287248628 86.86637796730983 l 3.8156750042200183 -3.058280378448754 a25.890036258662516,25.890036258662516 0 0,0 0.2757238553582946,0.3501412961091322 l -3.867752940172277 2.9921466883865833" fill="#ff3c05" stroke="none" /><path d="M 116.60985879189232 87.15038557335679 l 3.862640303539438 -2.988191482610386 a25.88357230429452,25.88357230429452 0 0,0 0.2695885721856188,0.3547469601790476 l -3.91350481594917 2.9212597465503047" fill="#ff3c05" stroke="none" /><path d="M 116.82858285166822 87.43820079747576 l 3.928956904510181 -2.9327940531210923 a25.902854608849896,25.902854608849896 0 0,0 0.2636384986921404,0.3596026159331755 l -3.978858015715948 2.8647289935164233" fill="#ff3c05" stroke="none" /><path d="M 117.04232023915458 87.72973835380427 l 3.966099281268557 -2.8555428611267657 a25.88713295712435,25.88713295712435 0 0,0 0.2572532360767068,0.36386645863478906 l -4.014665137149147 2.786849902160183" fill="#ff3c05" stroke="none" /><path d="M 117.2510076193507 88.02491185347247 l 4.185484717495704 -2.905427296416755 a26.09507508238629,26.09507508238629 0 0,0 0.25296756444339574,0.3711986862627426 l -4.234876747607833 2.832950586883606" fill="#ff3f05" stroke="none" /><path d="M 117.45458315368197 88.32363383020206 l 36.787074079880114 -24.608971952535768 a65.25935290895337,65.25935290895337 0 0,0 0.6165559615000448,0.939057028837702 l -37.205226676738086 23.97209685972039" fill="#36ff6d" stroke="none" /><line stroke="#e1ed5e" stroke-width="0.3" x1="172.23445277983987" x2="176.4835382374775" y1="55.19839476539836" y2="52.563006222186495" /><path d="M 173.08426987136738 54.67131705675599 a86.0,86.0 0 0,1 12.851231095245387,41.99856678651699" fill="none" id="id51" stroke="none" /><text fill="#e1ed5e" style="font-size:6.75px; font-family:Arial;" text-anchor="middle"><textPath startOffset="22.20632615414155" xlink:href="#id51">March</textPath></text><path d="M 117.84615892207809 88.93136811851018 l 1.9822927453631394 -1.2294672918455376 a23.33261105845731,23.33261105845731 0 0,0 0.20875376202934645,0.34313629667030704 l -2.00316230567871 1.1951632219681492" fill="#ff1702" stroke="none" /><path d="M 118.03404312379186 89.2402003453031 l 2.0070197879262723 -1.1974647433668957 a23.337102958950325,23.337102958950325 0 0,0 0.20285535100220384,0.34674555139092045 l -2.0273348133988036 1.16273977962208" fill="#ff1802" stroke="none" /><path d="M 118.21658344932153 89.55222093294921 l 3.2597779907921893 -1.8695844009486853 a24.757858217325904,24.757858217325904 0 0,0 0.20884120957926813,0.37150520871313136 l -3.2914768416638904 1.81319568230076" fill="#ff2c04" stroke="none" /><path d="M 118.3937258080291 89.86733742301442 l 2.0801078063652265 -1.145881522081411 a23.3748458789465,23.3748458789465 0 0,0 0.19110817711579803,0.354094427893609 l -2.0995240826994896 1.1099061108553432" fill="#ff1802" stroke="none" /><path d="M 118.56541770881063 90.18545643968196 l 4.316778035189825 -2.2820497082857645 a25.882860173728556,25.882860173728556 0 0,0 0.2048327239861618,0.39567162579467696 l -4.355420192336102 2.2074053602307426" fill="#ff3c05" stroke="none" /><path d="M 119.04729006885535 91.15688171328212 l 4.44437320335052 -2.0633968299675174 a25.900006086586032,25.900006086586032 0 0,0 0.18425718571291258,0.40598628450289226 l -4.47923270602678 1.9865885366225622" fill="#ff3c05" stroke="none" /><path d="M 119.196687751892 91.48605970444005 l 4.449838523819538 -1.973551896365464 a25.867850652568972,25.867850652568972 0 0,0 0.17702145024648736,0.408589913769673 l -4.483150683908706 1.8966628380091881" fill="#ff3b05" stroke="none" /><path d="M 119.34039704204932 91.81776055985345 l 4.487943447094413 -1.8986904869700707 a25.873054683627952,25.873054683627952 0 0,0 0.1699962114451502,0.41165930999296985 l -4.51996134542576 1.8211566065237978" fill="#ff3c05" stroke="none" /><path d="M 119.47837535516314 92.15188598940014 l 4.544248554255922 -1.8309422678237188 a25.899239176745763,25.899239176745763 0 0,0 0.16304983201534992,0.4149440377837237 l -4.5750919361529725 1.7524492251442108" fill="#ff3c05" stroke="none" /><path d="M 119.61058180528143 92.48833698450437 l 4.581383992015791 -1.7548593424872585 a25.905977027485285,25.905977027485285 0 0,0 0.15592364888840218,0.4177978586599464 l -4.610912229405818 1.6757383467979787" fill="#ff3c05" stroke="none" /><path d="M 119.97218684219823 93.5106431181261 l 4.7249407634652245 -1.5352263175835976 a25.968096724547202,25.968096724547202 0 0,0 0.1344708626557769,0.4263093820957285 l -4.750667109889208 1.45366676906145" fill="#ff3d05" stroke="none" /><path d="M 120.08093135843002 93.85539295169968 l 7.686460267474142 -2.3519963836824016 a29.0382559322476,29.0382559322476 0 0,0 0.14214102228553244,0.47922886505953655 l -7.725807186871377 2.219338131876335" fill="#ff6709" stroke="none" /><path d="M 120.18372546131832 94.20196356495316 l 4.5412197663144545 -1.3045241680039357 a25.724876746632813,25.724876746632813 0 0,0 0.11859563783922826,0.4266516091329931 l -4.5630021747200455 1.2261612554519907" fill="#ff3905" stroke="none" /><path d="M 120.28053869075195 94.5502522615342 l 4.505655828999939 -1.2107512546298753 a25.66549601328615,25.66549601328615 0 0,0 0.11097719916069071,0.4276404188147882 l -4.525829360030932 1.1330144102662367" fill="#ff3905" stroke="none" /><path d="M 120.37134235888165 94.90015583598534 l 4.6320550159703195 -1.1596073702178875 a25.774999782621926,25.774999782621926 0 0,0 0.10404164546908802,0.43131978940899723 l -4.651329461700227 1.0797023491494844" fill="#ff3a05" stroke="none" /><path d="M 120.6074358757038 95.95851677861258 l 4.957094716097023 -0.9721740852560189 a26.05152555931378,26.05152555931378 0 0,0 0.08251420779150258,0.4407941974651694 l -4.973094647798385 0.8867018103282868" fill="#ff3e05" stroke="none" /><path d="M 120.67395015179393 96.31383870115 l 4.946453839738911 -0.8819517594227803 a26.02446459780709,26.02446459780709 0 0,0 0.07483661771402038,0.4416899540061809 l -4.9609023189731545 0.7966760171007614" fill="#ff3e05" stroke="none" /><path d="M 120.73433829027371 96.67025291283417 l 4.895241567842198 -0.7861314946878142 a25.957962558800766,25.957962558800766 0 0,0 0.06705078510182155,0.44178089804802345 l -4.908048246383319 0.7017514842477085" fill="#ff3d05" stroke="none" /><path d="M 120.78858239683441 97.02765380044208 l 4.685388966544525 -0.6699157173064321 a25.733038858504266,25.733038858504266 0 0,0 0.05892130784366938,0.43903218218758694 l -4.6962262734460305 0.5891651930541808" fill="#ff3a05" stroke="none" /><path d="M 120.83666639777658 97.38593545837742 l 4.994081878391333 -0.6265326759589387 a26.033229281695895,26.033229281695895 0 0,0 0.05195444997011941,0.4451139992960813 l -5.004126681365042 0.5404749383380046" fill="#ff3e05" stroke="none" /><line stroke="#e1ed5e" stroke-width="0.3" x1="184.98032266829074" x2="189.97916517819016" y1="98.17113171792111" y2="98.06355123074" /><path d="M 185.9800911702706 98.14961562048488 a86.0,86.0 0 0,1 -9.607161424134198,41.387399972396054" fill="none" id="id52" stroke="none" /><text fill="#e1ed5e" style="font-size:6.75px; font-family:Arial;" text-anchor="middle"><textPath startOffset="21.466115282336823" xlink:href="#id52">April</textPath></text><path d="M 120.92983693683757 101.71520430193887 l 4.700737242763611 0.38522635247490183 a25.716495517664143,25.716495517664143 0 0,0 -0.0399529070763131,0.4408770003650645 l -4.693409739410223 -0.46608474138853684" fill="#ff3905" stroke="none" /><path d="M 120.89721153311464 102.0752229133903 l 4.67945488582963 0.46469893774399024 a25.702472023442052,25.702472023442052 0 0,0 -0.047510038556362974,0.4398839515180153 l -4.670762545772215 -0.5451792111467969" fill="#ff3905" stroke="none" /><path d="M 120.8583938346157 102.4346265915055 l 4.8272997975799905 0.5634505008172379 a25.86007199561766,25.86007199561766 0 0,0 -0.0554125814557449,0.44169279512751386 l -4.816885706877398 -0.6464610502321467" fill="#ff3b05" stroke="none" /><path d="M 120.70491114924044 103.5080841355445 l 4.797774049951728 0.8128986842418874 a25.86615249506552,25.86615249506552 0 0,0 -0.07815711422899894,0.4383466030318571 l -4.78307049338354 -0.8953640380069628" fill="#ff3b05" stroke="none" /><path d="M 120.64145759157962 103.86396538481128 l 6.48524096694412 1.2140008280546262 a27.59788969367082,27.59788969367082 0 0,0 -0.09142795408185272,0.4661891681296553 l -6.4633830798866025 -1.3254537232522265" fill="#ff5307" stroke="none" /><path d="M 120.5718875245553 104.21870165774334 l 4.629680865408583 0.9494142099702153 a25.72602711139322,25.72602711139322 0 0,0 -0.09269450338974317,0.4330378602477369 l -4.612652323294396 -1.0289658896341212" fill="#ff3905" stroke="none" /><path d="M 120.49622156327973 104.57218783832717 l 4.611101833953746 1.0286200147378681 a25.724438512438375,25.724438512438375 0 0,0 -0.10012862122671448,0.4313514796352005 l -4.592712646796478 -1.1078401517216336" fill="#ff3905" stroke="none" /><path d="M 120.41448212921028 104.9243191809786 l 6.036532207264824 1.4561139071118423 a27.209668976670983,27.209668976670983 0 0,0 -0.11374767037754295,0.45436540044432666 l -6.010573222592221 -1.559807146953565" fill="#ff4e07" stroke="none" /><path d="M 120.32669344350535 105.2749913415812 l 21.945978356516793 5.69521285569164 a43.67292251775979,43.67292251775979 0 0,0 -0.19509718443655044,0.7260292012224622 l -21.844693095738464 -6.07213299008965" fill="#deff1b" stroke="none" /><path d="M 120.23288151984713 105.62410040840565 l 4.265693870143394 1.1857278269372402 a25.427425287156435,25.427425287156435 0 0,0 -0.12084972708032382,0.4206937539613458 l -4.244651506176972 -1.258979056403168" fill="#ff3505" stroke="none" /><path d="M 119.54520255179757 107.68017299344265 l 0.6577495059972193 0.2584588202154748 a21.70670741780935,21.70670741780935 0 0,0 -0.13964378215360526,0.3465844152020269 l -0.6532031095862215 -0.2697426032603152" fill="#ff0000" stroke="none" /><line stroke="#e1ed5e" stroke-width="0.3" x1="174.80103733775053" x2="179.2010983576182" y1="140.37084112569926" y2="142.7455964860345" /><path d="M 175.68104954172406 140.8457921977663 a86.0,86.0 0 0,1 -30.038265399797805,32.042727171017184" fill="none" id="id53" stroke="none" /><text fill="#e1ed5e" style="font-size:6.75px; font-family:Arial;" text-anchor="middle"><textPath startOffset="22.206326154141568" xlink:href="#id53">May</textPath></text><path d="M 116.93607887273984 112.41649034213515 l 50.47999120874585 37.00882170095028 a83.59298999191353,83.59298999191353 0 0,0 -0.8607639175724394,1.1531339316173372 l -49.83546602447832 -37.87226851207693" fill="#4cd6ff" stroke="none" /><line stroke="#e1ed5e" stroke-width="0.3" x1="143.8653032363475" x2="146.44561519142675" y1="172.8068346515853" y2="177.08958963109032" /><path d="M 144.38136562736335 173.6633856474863 a86.0,86.0 0 0,1 -40.68145358897372,12.25698825130547" fill="none" id="id54" stroke="none" /><text fill="#e1ed5e" style="font-size:6.75px; font-family:Arial;" text-anchor="middle"><textPath startOffset="21.466115282336833" xlink:href="#id54">June</textPath></text><path d="M 110.21172684928248 118.3499491758327 l 5.775791845564767 10.378801585722918 a32.87768048901371,32.87768048901371 0 0,0 -0.49688694218496016,0.27094237890853445 l -5.596282091511158 -10.476684616391223" fill="#ff9b0e" stroke="none" /><path d="M 107.2578585660854 119.70592522655815 l 2.19163259315158 5.950535906905488 a27.341303572826003,27.341303572826003 0 0,0 -0.4430338472722397,0.158856175242544 l -2.088879185249606 -5.987379623187992" fill="#ff5007" stroke="none" /><line stroke="#e1ed5e" stroke-width="0.3" x1="102.19456741930631" x2="102.32365962044197" y1="184.97166512339345" y2="189.96999836594603" /><path d="M 102.22038585953345 185.97133177190398 a86.0,86.0 0 0,1 -42.740103519485714,-10.115201625700543" fill="none" id="id55" stroke="none" /><text fill="#e1ed5e" style="font-size:6.75px; font-family:Arial;" text-anchor="middle"><textPath startOffset="22.20632615414155" xlink:href="#id55">July</textPath></text><path d="M 99.81925306533755 120.99922214144158 l -0.33076043108718406 38.42782607057839 a59.42924952394201,59.42924952394201 0 0,0 -1.0228631608276009,-0.017609516925962816 l 0.9921832818074527 -38.41643907637327" fill="#35ff2f" stroke="none" /><line stroke="#e1ed5e" stroke-width="0.3" x1="58.666819895761336" x2="56.23545636021788" y1="174.27360380694188" y2="178.64263932499728" /><path d="M 58.180547188652646 175.14741091055294 a86.0,86.0 0 0,1 -31.652253787137756,-30.449443065178592" fill="none" id="id56" stroke="none" /><text fill="#e1ed5e" style="font-size:6.75px; font-family:Arial;" text-anchor="middle"><textPath startOffset="22.20632615414155" xlink:href="#id56">August</textPath></text><path d="M 82.05923443525364 110.91462005526583 l -14.148224970661763 8.607352872089146 a37.56076064935178,37.56076064935178 0 0,0 -0.33128434264672607,-0.5552516137157009 l 14.294290189006722 -8.362539164487334" fill="#ffd614" stroke="none" /><line stroke="#e1ed5e" stroke-width="0.3" x1="26.63291911575756" x2="22.317208475507996" y1="142.92168965132927" y2="145.44649492493687" /><path d="M 25.769776987707644 143.4266507060508 a86.0,86.0 0 0,1 -11.730757126820373,-40.83630448921669" fill="none" id="id57" stroke="none" /><text fill="#e1ed5e" style="font-size:6.75px; font-family:Arial;" text-anchor="middle"><textPath startOffset="21.46611528233685" xlink:href="#id57">September</textPath></text><line stroke="#e1ed5e" stroke-width="0.3" x1="15.007084014347285" x2="10.007500721073583" y1="101.09737516637583" y2="101.16192664675087" /><path d="M 14.007167355692545 101.11028546245083 a86.0,86.0 0 0,1 10.666146001902534,-42.60595125391555" fill="none" id="id58" stroke="none" /><text fill="#e1ed5e" style="font-size:6.75px; font-family:Arial;" text-anchor="middle"><textPath startOffset="22.20632615414155" xlink:href="#id58">October</textPath></text><line stroke="#e1ed5e" stroke-width="0.3" x1="26.266209847984243" x2="21.928928074336255" y1="57.711370442889674" y2="55.22380399835377" /><path d="M 25.398753493254645 57.213857153982495 a86.0,86.0 0 0,1 29.58750427330803,-30.492523968695096" fill="none" id="id59" stroke="none" /><text fill="#e1ed5e" style="font-size:6.75px; font-family:Arial;" text-anchor="middle"><textPath startOffset="21.46611528233685" xlink:href="#id59">November</textPath></text><path d="M 81.96595687620814 89.24020034530311 l -2.8639453564820805 -1.708739301898007 a24.334962219690976,24.334962219690976 0 0,0 0.21772166430389092,-0.357877170058518 l 2.834107893891973 1.7577842451635994" fill="#ff2603" stroke="none" /><path d="M 88.39885842347998 82.49532879139004 l -3.3377176407715172 -5.036198334751172 a27.041825280200335,27.041825280200335 0 0,0 0.3902173687086076,-0.25380823121035095 l 3.2505332462786227 5.092905490121058" fill="#ff4c07" stroke="none" /><line stroke="#e1ed5e" stroke-width="0.3" x1="56.762969772571076" x2="54.21961505331055" y1="26.818313649435495" y2="22.513508569990535" /><path d="M 56.25429882871897 25.957352633546506 a86.0,86.0 0 0,1 42.265352541879196,-11.944610805530505" fill="none" id="id60" stroke="none" /><text fill="#e1ed5e" style="font-size:6.75px; font-family:Arial;" text-anchor="middle"><textPath startOffset="22.20632615414155" xlink:href="#id60">December</textPath></text></svg>