<?xml version="1.0" encoding="utf-8" ?>
<svg baseProfile="full" height="200mm" version="1.1" viewBox="0,0,200,200" width="200mm" xmlns="http://www.w3.org/2000/svg" xmlns:ev="http://www.w3.org/2001/xml-events" xmlns:xlink="http://www.w3.org/1999/xlink"><defs /><rect fill="#1a1a1a" height="200" width="200" x="0" y="0" /><text alignment-baseline="middle" fill="#e1ed5e" style="dominant-baseline: central; font-size:9.0px; font-family:Arial;" text-anchor="middle" x="100.0" y="100.0">2023</text><line stroke="#e1ed5e" stroke-width="0.3" x1="100.0" x2="100.0" y1="15.0" y2="10.0" /><path d="M 100.0 14.0 a86.0,86.0 0 0,1 42.46469731375804,11.215312516191453" fill="none" id="id73" stroke="none" /><text fill="#e1ed5e" style="font-size:6.75px; font-family:Arial;" text-anchor="middle"><textPath startOffset="22.20632615414155" xlink:href="#id73">January</textPath></text><line stroke="#e1ed5e" stroke-width="0.3" x1="143.23703022742887" x2="145.7803849466894" y1="26.81831364943548" y2="22.513508569990506" /><path d="M 143.74570117128098 25.957352633546492 a86.0,86.0 0 0,1 28.547481713284135,27.462654790039103" fill="none" id="id74" stroke="none" /><text fill="#e1ed5e" style="font-size:6.75px; font-family:Arial;" text-anchor="middle"><textPath startOffset="19.985693538727396" xlink:href="#id74">February</textPath></text><line stroke="#e1ed5e" stroke-width="0.3" x1="172.23445277983987" x2="176.4835382374775" y1="55.19839476539836" y2="52.563006222186495" /><path d="M 173.08426987136738 54.67131705675599 a86.0,86.0 0 0,1 12.851231095245387,41.99856678651699" fill="none" id="id75" stroke="none" /><text fill="#e1ed5e" style="font-size:6.75px; font-family:Arial;" text-anchor="middle"><textPath startOffset="22.20632615414155" xlink:href="#id75">March</textPath></text><line stroke="#e1ed5e" stroke-width="0.3" x1="184.98032266829074" x2="189.97916517819016" y1="98.17113171792111" y2="98.06355123074" /><path d="M 185.9800911702706 98.14961562048488 a86.0,86.0 0 0,1 -9.607161424134198,41.387399972396054" fill="none" id="id76" stroke="none" /><text fill="#e1ed5e" style="font-size:6.75px; font-family:Arial;" text-anchor="middle"><textPath startOffset="21.466115282336823" xlink:href="#id76">April</textPath></text><path d="M 120.99980553446 99.90962569577887 l 33.50980963107264 -0.14421208448912376 a54.51011994362362,54.51011994362362 0 0,0 -0.004038168635514815,0.9383281762666779 l -33.50732716514762 -0.43262556998123886" fill="#78ff26" stroke="none" /><line stroke="#e1ed5e" stroke-width="0.3" x1="174.80103733775053" x2="179.2010983576182" y1="140.37084112569926" y2="142.7455964860345" /><path d="M 175.68104954172406 140.8457921977663 a86.0,86.0 0 0,1 -30.038265399797805,32.042727171017184" fill="none" id="id77" stroke="none" /><text fill="#e1ed5e" style="font-size:6.75px; font-family:Arial;" text-anchor="middle"><textPath startOffset="22.206326154141568" xlink:href="#id77">May</textPath></text><line stroke="#e1ed5e" stroke-width="0.3" x1="143.8653032363475" x2="146.44561519142675" y1="172.8068346515853" y2="177.08958963109032" /><path d="M 144.38136562736335 173.6633856474863 a86.0,86.0 0 0,1 -40.68145358897372,12.25698825130547" fill="none" id="id78" stroke="none" /><text fill="#e1ed5e" style="font-size:6.75px; font-family:Arial;" text-anchor="middle"><textPath startOffset="21.466115282336833" xlink:href="#id78">June</textPath></text><path d="M 107.59598834532513 119.57807347666477 l 14.90947313077417 38.42801583974283 a62.21898580043913,62.21898580043913 0 0,0 -1.0018139015820038,0.37880029577032515 l -14.245789008431892 -38.678964385619786" fill="#31ff3b" stroke="none" /><line stroke="#e1ed5e" stroke-width="0.3" x1="102.19456741930631" x2="102.32365962044197" y1="184.97166512339345" y2="189.96999836594603" /><path d="M 102.22038585953345 185.97133177190398 a86.0,86.0 0 0,1 -42.740103519485714,-10.115201625700543" fill="none" id="id79" stroke="none" /><text fill="#e1ed5e" style="font-size:6.75px; font-family:Arial;" text-anchor="middle"><textPath startOffset="22.20632615414155" xlink:href="#id79">July</textPath></text><path d="M 100.18074693466247 120.99922214144158 l 0.32420904109778137 37.666684013147915 a58.66807927209273,58.66807927209273 0 0,0 -1.0099119515204478,0.0 l 0.32420904109775545 -37.666684013147915" fill="#4bff2c" stroke="none" /><path d="M 99.45781275523022 120.99299961872073 l -0.1318520530047336 5.105192210176828 a26.106894601098766,26.106894601098766 0 0,0 -0.4491376047786725,-0.015469207237628372 l 0.21971000945804914 -5.1021662045131055" fill="#ff1001" stroke="none" /><path d="M 99.09653310690486 120.98055641714683 l -0.17560169183620764 4.077870734028135 a25.081649872002608,25.081649872002608 0 0,0 -0.431179755603249,-0.022287068254017276 l 0.24576951585294557 -4.074243859011916" fill="#ff0000" stroke="none" /><path d="M 96.93821686468263 120.77559828337769 l -0.8923289961000763 6.054860171428602 a27.12026002166847,27.12026002166847 0 0,0 -0.4612563928262704,-0.07203876234263264 l 0.9964212525348639 -6.038603101738863" fill="#ff1f03" stroke="none" /><path d="M 96.22490169976321 120.6578951692458 l -1.1037291591234895 6.039768888397602 a27.1397904102628,27.1397904102628 0 0,0 -0.4588335490180875,-0.08793654170236469 l 1.207530322713272 -6.019875148346769" fill="#ff1f03" stroke="none" /><path d="M 92.7421414339146 119.70592522655815 l -14.288967766044669 38.796199705259276 a62.343919884179144,62.343919884179144 0 0,0 -1.0038255174941,-0.3795609167811509 l 14.954663504299052 -38.54449053837149" fill="#31ff3c" stroke="none" /><path d="M 90.42595943632237 118.69057910512821 l -8.43414050979649 16.465249894613418 a39.49970757150116,39.49970757150116 0 0,0 -0.6024816991759468,-0.3151899499652486 l 8.716313111498934 -16.317630525703454" fill="#ffcf13" stroke="none" /><line stroke="#e1ed5e" stroke-width="0.3" x1="58.666819895761336" x2="56.23545636021788" y1="174.27360380694188" y2="178.64263932499728" /><path d="M 58.180547188652646 175.14741091055294 a86.0,86.0 0 0,1 -31.652253787137756,-30.449443065178592" fill="none" id="id80" stroke="none" /><text fill="#e1ed5e" style="font-size:6.75px; font-family:Arial;" text-anchor="middle"><textPath startOffset="22.20632615414155" xlink:href="#id80">August</textPath></text><path d="M 88.24862548938628 117.40417183066458 l -23.729159505307596 35.143665028683785 a63.404601194642325,63.404601194642325 0 0,0 -0.8992678070978801,-0.618524597683571 l 24.330584197028365 -34.72999964163511" fill="#32ff4a" stroke="none" /><path d="M 86.79598089348748 116.32954008644616 l -23.930836668746732 29.595500698098363 a59.06019712557167,59.06019712557167 0 0,0 -0.7850221538945791,-0.6460197886190913 l 24.436728951186 -29.17918579062209" fill="#47ff2c" stroke="none" /><path d="M 86.24171649860922 115.8653595955263 l -14.282897289490675 16.47031779370085 a42.80074593236752,42.80074593236752 0 0,0 -0.5524509279176417,-0.48747371151934055 l 14.564290570314904 -16.222020940409223" fill="#fffa17" stroke="none" /><path d="M 84.9287848128048 114.62390073753433 l -44.68116271932617 43.355023488762725 a83.25804657762778,83.25804657762778 0 0,0 -0.9891589126716067,-1.03712916533096 l 45.42082818337673 -42.579487206849265" fill="#4cd9ff" stroke="none" /><path d="M 83.28015986056508 112.70617746262583 l -33.58844500000231 25.525408096282234 a63.18684742902616,63.18684742902616 0 0,0 -0.6506401833135018,-0.8716388516475845 l 34.022846450010896 -24.943456365125343" fill="#32ff47" stroke="none" /><path d="M 83.06392112726016 112.41649034213515 l -37.65277171449727 27.604694088912346 a67.68779662316993,67.68779662316993 0 0,0 -0.6808109741135051,-0.9455868976331422 l 38.12236248098638 -26.952473585828066" fill="#38ff7e" stroke="none" /><line stroke="#e1ed5e" stroke-width="0.3" x1="26.63291911575756" x2="22.317208475507996" y1="142.92168965132927" y2="145.44649492493687" /><path d="M 25.769776987707644 143.4266507060508 a86.0,86.0 0 0,1 -11.730757126820373,-40.83630448921669" fill="none" id="id81" stroke="none" /><text fill="#e1ed5e" style="font-size:6.75px; font-family:Arial;" text-anchor="middle"><textPath startOffset="21.46611528233685" xlink:href="#id81">September</textPath></text><path d="M 81.69416730710424 110.29060199501025 l -35.955422196127785 20.21229766436691 a62.2471739901629,62.2471739901629 0 0,0 -0.5170178851838277,-0.9385376396050392 l 36.29801649076313 -19.590389506364048" fill="#31ff3b" stroke="none" /><path d="M 81.51974371655577 109.97397251340807 l -33.28834589727149 17.966041266086098 a58.82714119981974,58.82714119981974 0 0,0 -0.47327133114333386,-0.8952510015652723 l 33.59266973663971 -17.3903752494347" fill="#49ff2c" stroke="none" /><path d="M 80.58989483394504 108.01547362559985 l -35.22595663720773 14.546687096567124 a59.111338555499096,59.111338555499096 0 0,0 -0.3802755860283051,-0.943812818348419 l 35.47113483749342 -13.9381749103759" fill="#46ff2c" stroke="none" /><path d="M 79.76711848015287 105.62410040840567 l -26.133548579262357 7.264299012157189 a48.12438757802088,48.12438757802088 0 0,0 -0.2149829225508634,-0.8000314304219789 l 26.254719578154994 -6.813376648559671" fill="#c2ff1e" stroke="none" /><path d="M 79.67330655649465 105.27499134158121 l -36.677268231660236 9.518137954536643 a58.892175380396736,58.892175380396736 0 0,0 -0.24619365118809242,-0.9834212563443547 l 36.83567319714339 -8.885388858794897" fill="#48ff2c" stroke="none" /><path d="M 79.29508885075956 103.50808413554451 l -55.30229578380809 9.370004299945247 a77.09047066606583,77.09047066606583 0 0,0 -0.2104138349543462,-1.310247151116425 l 55.45539137312373 -8.416677919135608" fill="#44ffe7" stroke="none" /><path d="M 79.23777060512086 103.15116336523772 l -36.447716574994935 5.531810049551778 a57.86511855338977,57.86511855338977 0 0,0 -0.14098684303910433,-0.9860616518438791 l 36.53753746905064 -4.903602925727498" fill="#53ff2b" stroke="none" /><path d="M 79.0235259727143 100.99374915477108 l -12.52667508594991 0.5934444827363313 a33.54072426389514,33.54072426389514 0 0,0 -0.022357076300976567,-0.5769367978927924 l 12.535034295102086 -0.37773043782954213" fill="#ff7d0b" stroke="none" /><line stroke="#e1ed5e" stroke-width="0.3" x1="15.007084014347285" x2="10.007500721073583" y1="101.09737516637583" y2="101.16192664675087" /><path d="M 14.007167355692545 101.11028546245083 a86.0,86.0 0 0,1 10.666146001902534,-42.60595125391555" fill="none" id="id82" stroke="none" /><text fill="#e1ed5e" style="font-size:6.75px; font-family:Arial;" text-anchor="middle"><textPath startOffset="22.20632615414155" xlink:href="#id82">October</textPath></text><path d="M 79.00486145842228 99.54816195383935 l -8.439703890386847 -0.18163153857999037 a29.441658117527492,29.441658117527492 0 0,0 0.015265227110289388,-0.5065785708176155 l 8.435326968820911 0.3268802568226003" fill="#ff4206" stroke="none" /><path d="M 79.32604984820605 96.31383870115002 l -20.064330369323905 -3.5774662099746046 a41.38076587503236,41.38076587503236 0 0,0 0.13106722315396568,-0.7001663469898888 l 19.999777422260077 3.922310634427066" fill="#ffe815" stroke="none" /><path d="M 79.54389044137918 95.25157060432595 l -55.1126805639248 -12.793179060475184 a77.57802567618099,77.57802567618099 0 0,0 0.313146285612594,-1.2981935200626908 l 54.88430147805139 13.739957812197273" fill="#45ffec" stroke="none" /><path d="M 79.71946130924805 94.55025226153421 l -34.23029972597987 -9.198300960503143 a56.44463513552383,56.44463513552383 0 0,0 0.2602184481749297,-0.9361442095402359 l 34.06689450723858 9.786156473462322" fill="#62ff29" stroke="none" /><path d="M 80.02781315780177 93.51064311812611 l -46.109289640361034 -14.98181638346119 a69.4821762433005,69.4821762433005 0 0,0 0.37938163631826194,-1.1343028039854788 l 45.844570710271 15.773292290368992" fill="#3aff93" stroke="none" /><path d="M 80.2630227832202 92.82701384747504 l -41.497439772623515 -15.081365174866013 a65.15297366225946,65.15297366225946 0 0,0 0.3921446150659002,-1.050752606340189 l 41.231690569055985 15.793440918235545" fill="#34ff5f" stroke="none" /><path d="M 81.6062741919709 89.86733742301443 l -8.07638680240943 -4.44908786638061 a30.220759547071403,30.220759547071403 0 0,0 0.2549226965763106,-0.45347903217038044 l 7.99860646454069 4.5874504084857755" fill="#ff4d07" stroke="none" /><line stroke="#e1ed5e" stroke-width="0.3" x1="26.266209847984243" x2="21.928928074336255" y1="57.711370442889674" y2="55.22380399835377" /><path d="M 25.398753493254645 57.213857153982495 a86.0,86.0 0 0,1 29.58750427330803,-30.492523968695096" fill="none" id="id83" stroke="none" /><text fill="#e1ed5e" style="font-size:6.75px; font-family:Arial;" text-anchor="middle"><textPath startOffset="21.46611528233685" xlink:href="#id83">November</textPath></text><path d="M 82.54541684631803 88.32363383020206 l -49.316113205552526 -32.99036080032478 a80.33332054957381,80.33332054957381 0 0,0 0.7787570788325642,-1.142729919610477 l 48.74093166105122 33.83436874320567" fill="#48f6ff" stroke="none" /><path d="M 84.07557802195018 86.31012108654704 l -39.905640506015835 -34.30601043128372 a73.6247327395277,73.6247327395277 0 0,0 0.8344421635197294,-0.9539116408162551 l 39.30920647891826 34.98783762830291" fill="#3fffc2" stroke="none" /><path d="M 85.05521093208273 85.24692304244772 l -13.084696648189684 -12.916845847719356 a39.38625010786297,39.38625010786297 0 0,0 0.48044510682337105,-0.47838192284971937 l 12.860415741199 13.140163621219186" fill="#ffcd13" stroke="none" /><path d="M 85.83668400450813 84.49514656593479 l -27.836546684051466 -30.473201091051642 a62.27334873776355,62.27334873776355 0 0,0 0.7976593607648895,-0.7161464498774418 l 27.307876335690604 30.947846549698365" fill="#31ff3c" stroke="none" /><path d="M 89.00827224532344 82.1063720568725 l -19.922671222074968 -32.43246871078939 a59.062814600331734,59.062814600331734 0 0,0 0.8708613274388943,-0.5246842056480405 l 19.361447828418424 32.770599525896046" fill="#47ff2c" stroke="none" /><line stroke="#e1ed5e" stroke-width="0.3" x1="56.762969772571076" x2="54.21961505331055" y1="26.818313649435495" y2="22.513508569990535" /><path d="M 56.25429882871897 25.957352633546506 a86.0,86.0 0 0,1 42.265352541879196,-11.944610805530505" fill="none" id="id84" stroke="none" /><text fill="#e1ed5e" style="font-size:6.75px; font-family:Arial;" text-anchor="middle"><textPath startOffset="22.20632615414155" xlink:href="#id84">December</textPath></text><path d="M 91.90106846888425 80.62456947434976 l -1.9480718394890324 -4.6604580419011725 a26.05122292639431,26.05122292639431 0 0,0 0.41522688240062716,-0.1693814710573315 l 1.8675610875000248 4.693300399142082" fill="#ff0f01" stroke="none" /><path d="M 92.23578459929587 80.48803036053334 l -23.29264620211241 -58.53590891839998 a84.0,84.0 0 0,0 1.3480673400012946,-0.5230291844377941 l 22.28159569711144 58.92818080672833" fill="#4dd2ff" stroke="none" /><path d="M 93.59665428221793 80.00007090966166 l -1.5406548395946489 -4.812013735102881 a26.052632335880496,26.052632335880496 0 0,0 0.4282737981778763,-0.13306675382389063 l 1.4575956687060438 4.837820623809297" fill="#ff0f01" stroke="none" /><path d="M 94.63758080256005 79.69619591428918 l -16.08684628105532 -60.90985490344082 a83.9983892463015,83.9983892463015 0 0,0 1.401137577036045,-0.3571811660160146 l 15.035999815334273 61.177739065625694" fill="#4dd2ff" stroke="none" /><path d="M 95.33964822691252 79.52364482259891 l -1.123857062835659 -4.937931192264473 a26.064209628088477,26.064209628088477 0 0,0 0.43832215568320465,-0.0958002460041972 l 1.0386921829989335 4.956544936364538" fill="#ff0f01" stroke="none" /><path d="M 97.11714578562143 79.19881850522333 l -5.251391802576165 -37.8913208447192 a59.253487569391844,59.253487569391844 0 0,0 1.0115001227699862,-0.13132174618345135 l 4.598376951298321 37.97610091406679" fill="#45ff2d" stroke="none" /><path d="M 97.83486435360386 79.11191278185805 l -0.5211218007776258 -5.027508389156427 a26.05444443379131,26.05444443379131 0 0,0 0.44649237520691176,-0.04239983102306206 l 0.4345042984804777 5.035733764694669" fill="#ff0f01" stroke="none" /><path d="M 98.55514903715128 79.0497635885617 l -0.3472731892172791 -5.035436595558354 a26.047397386360366,26.047397386360366 0 0,0 0.4475661669502111,-0.026998413440619852 l 0.260544973427445 5.040668278379281" fill="#ff0f01" stroke="none" /><path d="M 98.91598698831166 79.02799685794201 l -1.7258525646736331 -33.389438151384944 a54.43401183136943,54.43401183136943 0 0,0 0.9361591620346222,-0.04031298278032391 l 1.1508525702496868 33.41419886068946" fill="#79ff26" stroke="none" /></svg>